<svg width="50" height="50" viewBox="0 0 50 50" fill="none" xmlns="http://www.w3.org/2000/svg">
<g id="ring_volume_24px">
<path id="icon/communication/ring_volume_24px" fill-rule="evenodd" clip-rule="evenodd" d="M22.9167 5.354H27.0833V15.7707H22.9167V5.354ZM41.1458 11.2916L44.0833 14.2291C43.8542 14.2916 36.6667 21.6249 36.6667 21.6249L33.7292 18.6874L41.1458 11.2916ZM25 26.1873C34.4583 26.1873 43.0417 29.8957 49.3958 35.9165C49.7708 36.2915 50 36.8123 50 37.3748C50 37.9582 49.7708 38.479 49.3958 38.854L44.2292 44.0207C43.8542 44.3957 43.3333 44.6248 42.75 44.6248C42.1875 44.6248 41.6667 44.4165 41.2917 44.0415C39.6458 42.5207 37.7917 41.2082 35.75 40.1873C35.0625 39.854 34.5833 39.1248 34.5833 38.3123V31.854C31.5625 30.8748 28.3333 30.354 25 30.354C21.6667 30.354 18.4375 30.8748 15.4167 31.8748V38.3332C15.4167 39.1665 14.9375 39.8748 14.25 40.2082C12.2292 41.229 10.3542 42.5207 8.70833 44.0623C8.33333 44.4165 7.8125 44.6457 7.25 44.6457C6.66667 44.6457 6.14583 44.4165 5.77083 44.0415L0.604167 38.8748C0.229167 38.4998 0 37.979 0 37.3957C0 36.8123 0.229167 36.2915 0.604167 35.9165C6.95833 29.8957 15.5417 26.1873 25 26.1873ZM7.35417 39.7288C8.56251 38.7496 9.87501 37.8538 11.25 37.0829H11.2708V33.5413C9.08334 34.6038 7.02084 35.9371 5.12501 37.4996L7.35417 39.7288ZM42.6458 39.7082C41.4167 38.7082 40.125 37.8332 38.75 37.0624V33.5207C40.9167 34.5832 42.9792 35.9165 44.875 37.479L42.6458 39.7082ZM16.2708 18.6872L13.3333 21.6247C13.3333 21.6247 6.14583 14.2913 5.91666 14.2288L8.875 11.2705L16.2708 18.6872Z" fill="white"/>
</g>
</svg>
