<svg width="599" height="452" viewBox="0 0 599 452" fill="none" xmlns="http://www.w3.org/2000/svg">
<g clip-path="url(#clip0)">
<path d="M345.186 21.9989C350.324 32.9288 339.437 36.0247 326.966 41.883C314.494 47.7412 305.161 54.1435 300.023 43.2136C294.885 32.2838 290.716 10.59 308.359 2.30242C326.61 -6.27063 340.048 11.0691 345.186 21.9989Z" fill="#2E3341"/>
<path d="M319.741 43.4937C329.014 43.4937 336.53 35.9796 336.53 26.7105C336.53 17.4415 329.014 9.9274 319.741 9.9274C310.469 9.9274 302.952 17.4415 302.952 26.7105C302.952 35.9796 310.469 43.4937 319.741 43.4937Z" fill="#FFB8B8"/>
<path d="M402.919 101.14C402.338 100.382 401.757 99.637 401.169 98.9127C400.41 97.9697 399.647 97.0563 398.879 96.1725C390.177 86.1345 380.921 79.8138 370.729 79.1373H370.716L370.565 79.1236L350.256 98.9127L343.352 105.637L343.502 106.006L347.228 115.278H412.503C409.561 110.399 406.362 105.68 402.919 101.14Z" fill="#2E3341"/>
<path d="M301.484 33.4674L307.494 30.6443L306.657 21.9774L310.675 29.1498L313.548 27.8004L313.06 22.7448L315.404 26.9286L336.748 16.9025C334.744 12.6379 331.126 9.34407 326.692 7.74557C322.258 6.14707 317.37 6.37485 313.104 8.37879L310.011 9.83187C305.745 11.8358 302.449 15.4518 300.85 19.8843C299.251 24.3168 299.479 29.2028 301.484 33.4674Z" fill="#2E3341"/>
<path d="M440.584 338.109H90.0187C87.0284 338.105 84.1615 336.916 82.047 334.803C79.9325 332.689 78.7431 329.823 78.7397 326.834V116.265C78.7421 114.075 79.6135 111.976 81.1625 110.427C82.7116 108.878 84.8119 108.007 87.0027 108.005H443.457C445.685 108.007 447.822 108.893 449.398 110.469C450.974 112.044 451.86 114.18 451.863 116.408V326.834C451.859 329.823 450.67 332.689 448.555 334.803C446.441 336.916 443.574 338.105 440.584 338.109Z" fill="#F2F2F2"/>
<path d="M100.956 326.834H429.647C432.547 326.834 435.329 325.682 437.38 323.632C439.431 321.581 440.584 318.8 440.584 315.901V137.179C440.584 134.279 439.431 131.498 437.38 129.448C435.329 127.397 432.547 126.246 429.647 126.246H100.956C98.0552 126.246 95.2733 127.397 93.2221 129.448C91.171 131.498 90.0187 134.279 90.0187 137.179V315.901C90.0187 318.8 91.171 321.581 93.2221 323.632C95.2733 325.682 98.0552 326.834 100.956 326.834Z" fill="white"/>
<path d="M451.706 115.62H78.5814V109.88C78.5857 106.881 79.78 104.006 81.9022 101.886C84.0244 99.7656 86.9012 98.5735 89.9015 98.571H440.386C443.386 98.5735 446.263 99.7655 448.385 101.886C450.507 104.006 451.701 106.881 451.706 109.88V115.62Z" fill="#E1ECEF"/>
<path d="M99.1539 110.04C100.771 110.04 102.082 108.729 102.082 107.113C102.082 105.496 100.771 104.186 99.1539 104.186C97.5368 104.186 96.2258 105.496 96.2258 107.113C96.2258 108.729 97.5368 110.04 99.1539 110.04Z" fill="white"/>
<path d="M110.268 110.04C111.885 110.04 113.196 108.729 113.196 107.113C113.196 105.496 111.885 104.186 110.268 104.186C108.651 104.186 107.34 105.496 107.34 107.113C107.34 108.729 108.651 110.04 110.268 110.04Z" fill="white"/>
<path d="M121.382 110.04C122.999 110.04 124.31 108.729 124.31 107.113C124.31 105.496 122.999 104.186 121.382 104.186C119.765 104.186 118.454 105.496 118.454 107.113C118.454 108.729 119.765 110.04 121.382 110.04Z" fill="white"/>
<path d="M275.557 288.075H246.163C244.442 288.073 242.791 287.388 241.574 286.171C240.356 284.954 239.671 283.304 239.669 281.583V252.2C239.671 250.479 240.356 248.829 241.574 247.612C242.791 246.395 244.442 245.711 246.163 245.709H275.557C277.279 245.711 278.93 246.395 280.147 247.612C281.365 248.829 282.049 250.479 282.051 252.2V281.583C282.049 283.304 281.365 284.954 280.147 286.171C278.93 287.388 277.279 288.073 275.557 288.075ZM246.163 247.076C244.804 247.077 243.501 247.617 242.54 248.578C241.579 249.539 241.038 250.842 241.037 252.2V281.583C241.038 282.942 241.579 284.245 242.54 285.206C243.501 286.166 244.804 286.707 246.163 286.708H275.557C276.917 286.707 278.22 286.166 279.181 285.206C280.142 284.245 280.683 282.942 280.684 281.583V252.2C280.683 250.842 280.142 249.539 279.181 248.578C278.22 247.617 276.917 247.077 275.557 247.076H246.163Z" fill="#E7F9FF"/>
<path d="M269.747 279.875H251.974C251.43 279.874 250.909 279.658 250.524 279.274C250.14 278.89 249.924 278.369 249.923 277.825V255.959C249.924 255.415 250.14 254.894 250.524 254.51C250.909 254.126 251.43 253.909 251.974 253.909H264.852C265.319 253.909 265.772 254.069 266.137 254.361L271.031 258.293C271.271 258.484 271.464 258.727 271.597 259.004C271.73 259.281 271.798 259.584 271.798 259.891V277.825C271.797 278.369 271.581 278.89 271.196 279.274C270.812 279.658 270.291 279.874 269.747 279.875ZM251.974 255.275C251.793 255.276 251.619 255.348 251.491 255.476C251.363 255.604 251.29 255.778 251.29 255.959V277.825C251.29 278.006 251.363 278.18 251.491 278.308C251.619 278.436 251.793 278.508 251.974 278.508H269.747C269.928 278.508 270.102 278.436 270.23 278.308C270.358 278.18 270.43 278.006 270.43 277.825V259.891C270.431 259.788 270.408 259.687 270.364 259.595C270.319 259.503 270.255 259.422 270.175 259.358L265.28 255.426C265.159 255.329 265.008 255.276 264.852 255.275H251.974Z" fill="#E7F9FF"/>
<path d="M266.329 263.475H255.392C255.21 263.475 255.037 263.403 254.908 263.275C254.78 263.147 254.708 262.973 254.708 262.792C254.708 262.611 254.78 262.437 254.908 262.309C255.037 262.181 255.21 262.109 255.392 262.109H266.329C266.51 262.109 266.684 262.181 266.812 262.309C266.941 262.437 267.013 262.611 267.013 262.792C267.013 262.973 266.941 263.147 266.812 263.275C266.684 263.403 266.51 263.475 266.329 263.475Z" fill="#E7F9FF"/>
<path d="M266.329 267.575H255.392C255.21 267.575 255.037 267.503 254.908 267.375C254.78 267.247 254.708 267.073 254.708 266.892C254.708 266.711 254.78 266.537 254.908 266.409C255.037 266.281 255.21 266.209 255.392 266.209H266.329C266.51 266.209 266.684 266.281 266.812 266.409C266.941 266.537 267.013 266.711 267.013 266.892C267.013 267.073 266.941 267.247 266.812 267.375C266.684 267.503 266.51 267.575 266.329 267.575Z" fill="#E7F9FF"/>
<path d="M266.329 271.675H255.392C255.21 271.675 255.037 271.603 254.908 271.475C254.78 271.347 254.708 271.173 254.708 270.992C254.708 270.811 254.78 270.637 254.908 270.509C255.037 270.381 255.21 270.309 255.392 270.309H266.329C266.51 270.309 266.684 270.381 266.812 270.509C266.941 270.637 267.013 270.811 267.013 270.992C267.013 271.173 266.941 271.347 266.812 271.475C266.684 271.603 266.51 271.675 266.329 271.675Z" fill="#E7F9FF"/>
<path d="M345.282 288.075H315.888C314.167 288.073 312.516 287.388 311.299 286.171C310.081 284.954 309.396 283.304 309.394 281.583V252.2C309.396 250.479 310.081 248.829 311.299 247.612C312.516 246.395 314.167 245.711 315.888 245.709H345.282C347.004 245.711 348.655 246.395 349.872 247.612C351.089 248.829 351.774 250.479 351.776 252.2V281.583C351.774 283.304 351.089 284.954 349.872 286.171C348.655 287.388 347.004 288.073 345.282 288.075ZM315.888 247.076C314.529 247.077 313.226 247.617 312.265 248.578C311.304 249.539 310.763 250.842 310.762 252.2V281.583C310.763 282.942 311.304 284.245 312.265 285.206C313.226 286.166 314.529 286.707 315.888 286.708H345.282C346.642 286.707 347.945 286.166 348.906 285.206C349.867 284.245 350.408 282.942 350.409 281.583V252.2C350.408 250.842 349.867 249.539 348.906 248.578C347.945 247.617 346.642 247.077 345.282 247.076H315.888Z" fill="#E7F9FF"/>
<path d="M340.155 274.409H321.015C320.472 274.408 319.95 274.192 319.566 273.807C319.181 273.423 318.965 272.902 318.964 272.359V261.425C318.965 260.882 319.181 260.361 319.566 259.976C319.95 259.592 320.472 259.376 321.015 259.375H340.155C340.699 259.376 341.22 259.592 341.605 259.976C341.989 260.361 342.206 260.882 342.206 261.425V272.359C342.206 272.902 341.989 273.423 341.605 273.807C341.22 274.192 340.699 274.408 340.155 274.409ZM321.015 260.742C320.834 260.742 320.66 260.814 320.532 260.942C320.404 261.07 320.332 261.244 320.332 261.425V272.359C320.332 272.54 320.404 272.713 320.532 272.842C320.66 272.97 320.834 273.042 321.015 273.042H340.155C340.337 273.042 340.51 272.97 340.639 272.842C340.767 272.713 340.839 272.54 340.839 272.359V261.425C340.839 261.244 340.767 261.07 340.639 260.942C340.51 260.814 340.337 260.742 340.155 260.742H321.015Z" fill="#E7F9FF"/>
<path d="M330.585 268.695C330.201 268.695 329.825 268.588 329.499 268.385L319.286 262.005C319.132 261.909 319.023 261.755 318.983 261.579C318.942 261.403 318.973 261.217 319.069 261.064C319.165 260.91 319.318 260.801 319.495 260.76C319.671 260.719 319.857 260.75 320.011 260.846L330.224 267.226C330.332 267.294 330.458 267.329 330.586 267.329C330.714 267.329 330.839 267.294 330.948 267.226L341.16 260.846C341.314 260.75 341.499 260.719 341.676 260.76C341.852 260.801 342.005 260.91 342.101 261.064C342.197 261.217 342.228 261.403 342.188 261.579C342.147 261.755 342.038 261.909 341.885 262.005L331.673 268.385C331.346 268.588 330.97 268.695 330.585 268.695Z" fill="#E7F9FF"/>
<path d="M205.832 288.075H176.438C174.717 288.073 173.066 287.388 171.849 286.171C170.631 284.954 169.946 283.304 169.944 281.583V252.2C169.946 250.479 170.631 248.829 171.849 247.612C173.066 246.395 174.717 245.711 176.438 245.709H205.832C207.554 245.711 209.205 246.395 210.422 247.612C211.64 248.829 212.324 250.479 212.326 252.2V281.583C212.324 283.304 211.64 284.954 210.422 286.171C209.205 287.388 207.554 288.073 205.832 288.075ZM176.438 247.076C175.079 247.077 173.776 247.617 172.815 248.578C171.854 249.539 171.313 250.842 171.312 252.2V281.583C171.313 282.942 171.854 284.245 172.815 285.206C173.776 286.166 175.079 286.707 176.438 286.708H205.832C207.192 286.707 208.495 286.166 209.456 285.206C210.417 284.245 210.958 282.942 210.959 281.583V252.2C210.958 250.842 210.417 249.539 209.456 248.578C208.495 247.617 207.192 247.077 205.832 247.076H176.438Z" fill="#E7F9FF"/>
<path d="M200.705 274.409H181.565C181.022 274.408 180.5 274.192 180.116 273.807C179.731 273.423 179.515 272.902 179.515 272.359V261.425C179.515 260.882 179.731 260.361 180.116 259.976C180.5 259.592 181.022 259.376 181.565 259.375H200.705C201.249 259.376 201.77 259.592 202.155 259.976C202.539 260.361 202.756 260.882 202.756 261.425V272.359C202.756 272.902 202.539 273.423 202.155 273.807C201.77 274.192 201.249 274.408 200.705 274.409ZM181.565 260.742C181.384 260.742 181.21 260.814 181.082 260.942C180.954 261.07 180.882 261.244 180.882 261.425V272.359C180.882 272.54 180.954 272.713 181.082 272.842C181.21 272.97 181.384 273.042 181.565 273.042H200.705C200.887 273.042 201.06 272.97 201.189 272.842C201.317 272.713 201.389 272.54 201.389 272.359V261.425C201.389 261.244 201.317 261.07 201.189 260.942C201.06 260.814 200.887 260.742 200.705 260.742H181.565Z" fill="#E7F9FF"/>
<path d="M197.672 274.409H183.915C183.675 274.409 183.44 274.345 183.232 274.226C183.024 274.106 182.851 273.933 182.731 273.725C182.611 273.518 182.548 273.282 182.548 273.042C182.548 272.802 182.611 272.566 182.732 272.359L186.875 265.184C186.995 264.976 187.168 264.803 187.376 264.683C187.583 264.563 187.819 264.5 188.059 264.5C188.299 264.5 188.535 264.563 188.743 264.683C188.951 264.803 189.123 264.976 189.243 265.184L191.919 269.817L193.47 267.133C193.59 266.925 193.762 266.753 193.97 266.633C194.178 266.513 194.414 266.45 194.654 266.45C194.894 266.45 195.13 266.513 195.337 266.633C195.545 266.753 195.718 266.925 195.838 267.133L198.856 272.359C198.976 272.566 199.039 272.802 199.039 273.042C199.039 273.282 198.976 273.518 198.856 273.725C198.736 273.933 198.563 274.106 198.355 274.225C198.148 274.345 197.912 274.409 197.672 274.409H197.672ZM197.672 273.042L194.654 267.816L192.512 271.526C192.452 271.63 192.365 271.716 192.261 271.776C192.157 271.836 192.039 271.867 191.919 271.867C191.799 271.867 191.682 271.836 191.578 271.776C191.474 271.716 191.387 271.63 191.327 271.526L188.059 265.867L183.915 273.042H197.672Z" fill="#E7F9FF"/>
<path d="M198.655 264.842C199.41 264.842 200.022 264.23 200.022 263.475C200.022 262.72 199.41 262.109 198.655 262.109C197.9 262.109 197.288 262.72 197.288 263.475C197.288 264.23 197.9 264.842 198.655 264.842Z" fill="#E7F9FF"/>
<path d="M525.552 442.896L517.171 442.896L513.185 410.583L525.553 410.583L525.552 442.896Z" fill="#FFB8B8"/>
<path d="M527.689 451.017L500.667 451.016V450.674C500.667 449.293 500.939 447.926 501.467 446.651C501.996 445.375 502.771 444.216 503.747 443.24C504.724 442.263 505.884 441.489 507.16 440.961C508.436 440.432 509.803 440.16 511.185 440.16H511.185L527.69 440.161L527.689 451.017Z" fill="#2E3341"/>
<path d="M559.731 442.896L551.35 442.896L547.363 410.583L559.732 410.583L559.731 442.896Z" fill="#FFB8B8"/>
<path d="M561.868 451.017L534.846 451.016V450.674C534.846 449.293 535.118 447.926 535.646 446.651C536.175 445.375 536.95 444.216 537.926 443.24C538.903 442.263 540.062 441.489 541.339 440.961C542.615 440.432 543.982 440.16 545.364 440.16H545.364L561.868 440.161L561.868 451.017Z" fill="#2E3341"/>
<path d="M557.218 428.888L549.457 426.528C548.878 426.353 548.364 426.011 547.979 425.545C547.594 425.079 547.356 424.51 547.293 423.909L540.056 355.354C540.051 355.271 540.014 355.193 539.953 355.136C539.892 355.08 539.812 355.048 539.729 355.048C539.646 355.04 539.563 355.065 539.498 355.117C539.433 355.169 539.391 355.245 539.38 355.328L527.26 421.746C527.186 422.149 527.033 422.533 526.809 422.876C526.584 423.219 526.294 423.514 525.954 423.743C525.614 423.972 525.232 424.131 524.83 424.211C524.428 424.29 524.014 424.288 523.613 424.206L513.693 422.163C512.966 422.011 512.318 421.602 511.868 421.01C511.418 420.419 511.197 419.685 511.245 418.943L518.618 310.081L568.613 304.689L561.184 426.134C561.136 426.914 560.792 427.648 560.223 428.184C559.653 428.721 558.901 429.02 558.119 429.022C557.814 429.022 557.51 428.977 557.218 428.888Z" fill="#2E3341"/>
<path d="M557.171 215.28C566.443 215.28 573.96 207.766 573.96 198.497C573.96 189.228 566.443 181.713 557.171 181.713C547.898 181.713 540.381 189.228 540.381 198.497C540.381 207.766 547.898 215.28 557.171 215.28Z" fill="#FFB8B8"/>
<path d="M518.541 310.721L529.381 242.49C529.957 238.862 531.3 235.399 533.32 232.33C535.339 229.262 537.989 226.658 541.094 224.693C544.198 222.728 547.686 221.446 551.325 220.933C554.963 220.42 558.669 220.687 562.196 221.717C568.363 223.5 573.644 227.517 577.006 232.984C580.369 238.451 581.572 244.974 580.38 251.28L569.039 312.213L518.541 310.721Z" fill="#E1ECEF"/>
<path d="M561.806 322.929C562.645 322.375 563.352 321.645 563.877 320.789C564.403 319.932 564.734 318.971 564.848 317.973C564.962 316.975 564.855 315.964 564.536 315.012C564.217 314.059 563.693 313.188 563 312.46L574.208 290.764L561.586 292.111L552.878 312.507C551.731 313.751 551.081 315.372 551.051 317.063C551.02 318.754 551.611 320.398 552.711 321.682C553.812 322.967 555.345 323.803 557.022 324.033C558.698 324.263 560.4 323.87 561.806 322.929V322.929Z" fill="#FFB8B8"/>
<path d="M564.206 308.633C563.586 308.546 563.007 308.272 562.547 307.847L558.259 303.886C557.796 303.456 557.476 302.894 557.342 302.277C557.209 301.659 557.268 301.015 557.513 300.432L566.083 280.125L564.867 240.001C565.042 238.711 565.469 237.468 566.125 236.343C566.78 235.219 567.651 234.234 568.688 233.446C569.724 232.658 570.906 232.082 572.165 231.751C573.424 231.42 574.736 231.34 576.026 231.515C577.316 231.691 578.559 232.12 579.684 232.776C580.808 233.432 581.792 234.304 582.58 235.341C583.367 236.377 583.942 237.559 584.272 238.818C584.603 240.077 584.682 241.389 584.504 242.678L586.583 267.901C587.215 275.557 585.044 283.181 580.473 289.356L567.108 307.417C566.851 307.765 566.524 308.054 566.147 308.266C565.771 308.478 565.354 308.609 564.924 308.65C564.685 308.673 564.444 308.667 564.206 308.633Z" fill="#E1ECEF"/>
<path d="M460.486 189.353C460.669 190.34 461.066 191.276 461.65 192.094C462.234 192.911 462.99 193.591 463.865 194.085C464.74 194.579 465.713 194.875 466.715 194.952C467.717 195.03 468.723 194.887 469.664 194.533L485.281 213.31L488.962 201.166L473.568 185.197C472.869 183.657 471.629 182.427 470.083 181.739C468.537 181.051 466.793 180.954 465.18 181.467C463.568 181.979 462.2 183.065 461.334 184.518C460.469 185.971 460.167 187.692 460.486 189.353Z" fill="#FFB8B8"/>
<path d="M472.719 197.135C473.042 196.599 473.52 196.173 474.091 195.915L479.411 193.512C479.988 193.253 480.63 193.178 481.251 193.296C481.872 193.414 482.442 193.72 482.884 194.172L498.249 209.978L535.686 224.504C536.807 225.167 537.785 226.045 538.566 227.087C539.347 228.129 539.914 229.315 540.236 230.576C540.558 231.837 540.629 233.15 540.443 234.438C540.257 235.727 539.819 236.966 539.154 238.085C538.489 239.204 537.609 240.182 536.566 240.961C535.523 241.74 534.336 242.306 533.074 242.627C531.812 242.947 530.499 243.016 529.21 242.829C527.921 242.641 526.682 242.202 525.563 241.536L501.517 233.615C494.219 231.212 488.042 226.241 484.136 219.626L472.708 200.281C472.489 199.909 472.35 199.495 472.301 199.066C472.252 198.637 472.294 198.202 472.424 197.79C472.496 197.561 472.596 197.341 472.719 197.135Z" fill="#E1ECEF"/>
<path opacity="0.1" d="M570.789 256.692L570.105 278.558L557.513 300.432L568.027 276.056L570.789 256.692Z" fill="black"/>
<path d="M555.247 201.651C554.193 201.788 553.124 201.537 552.241 200.946C551.357 200.356 550.717 199.464 550.441 198.437C550.175 197.256 549.592 196.169 548.755 195.294C547.918 194.418 546.859 193.787 545.69 193.467C542.61 192.764 538.846 194.213 536.589 191.88C536.106 191.348 535.756 190.708 535.569 190.014C535.382 189.32 535.362 188.591 535.512 187.888C535.928 185.621 537.55 183.909 539.315 182.539C543.03 179.671 547.525 177.991 552.212 177.722C554.637 177.651 557.065 177.772 559.472 178.083C561.992 178.242 564.485 178.697 566.898 179.439C569.648 180.476 572.091 182.19 574.003 184.421C575.915 186.652 577.233 189.329 577.837 192.204C578.388 195.088 578.303 198.058 577.588 200.906C576.873 203.753 575.545 206.411 573.696 208.693C571.483 211.448 568.629 213.62 565.383 215.019C564.61 215.384 563.724 215.429 562.918 215.144C560.897 214.341 561.227 211.838 562.149 210.168C563.135 208.381 564.653 206.651 563.86 204.477C563.462 203.469 562.699 202.647 561.722 202.177C559.712 201.152 557.464 201.395 555.304 201.644L555.247 201.651Z" fill="#2E3341"/>
<path d="M454.876 211.128H247.068C244.078 211.125 241.211 209.936 239.096 207.822C236.982 205.709 235.792 202.843 235.789 199.853V155.437C235.792 152.448 236.982 149.582 239.096 147.469C241.211 145.355 244.078 144.166 247.068 144.163H454.876C457.866 144.166 460.733 145.355 462.847 147.469C464.962 149.582 466.151 152.448 466.155 155.437V199.853C466.151 202.843 464.962 205.708 462.847 207.822C460.733 209.936 457.866 211.125 454.876 211.128Z" fill="white"/>
<path d="M454.875 211.47H247.068C243.987 211.467 241.033 210.242 238.854 208.064C236.676 205.886 235.45 202.933 235.447 199.854V155.438C235.45 152.358 236.676 149.405 238.854 147.227C241.033 145.049 243.987 143.824 247.068 143.821H454.875C457.956 143.824 460.91 145.049 463.089 147.227C465.267 149.405 466.493 152.358 466.496 155.438V199.854C466.493 202.933 465.267 205.886 463.089 208.064C460.91 210.242 457.956 211.467 454.875 211.47ZM247.068 145.188C244.349 145.191 241.743 146.272 239.821 148.193C237.898 150.115 236.817 152.72 236.814 155.438V199.854C236.817 202.571 237.898 205.176 239.821 207.098C241.743 209.019 244.349 210.1 247.068 210.103H454.875C457.594 210.1 460.2 209.019 462.122 207.098C464.045 205.176 465.126 202.571 465.129 199.854V155.438C465.126 152.72 464.045 150.115 462.122 148.193C460.2 146.272 457.594 145.191 454.875 145.188H247.068Z" fill="#3D4556"/>
<path d="M429.583 200.195H272.36C269.37 200.192 266.503 199.003 264.388 196.889C262.274 194.775 261.084 191.91 261.081 188.92V165.687C261.084 162.698 262.274 159.832 264.388 157.719C266.503 155.605 269.37 154.416 272.36 154.413H429.583C432.573 154.416 435.44 155.605 437.555 157.719C439.669 159.832 440.859 162.698 440.862 165.687V188.92C440.859 191.91 439.669 194.775 437.555 196.889C435.44 199.003 432.573 200.192 429.583 200.195Z" fill="#F2F2F2"/>
<path d="M306.194 187.673C313.643 187.673 319.682 181.636 319.682 174.189C319.682 166.743 313.643 160.706 306.194 160.706C298.744 160.706 292.705 166.743 292.705 174.189C292.705 181.636 298.744 187.673 306.194 187.673Z" fill="#5BAFE8"/>
<path d="M419.813 198.834L400.773 182.872L382.063 167.186C381.569 166.772 380.945 166.545 380.3 166.547C379.656 166.548 379.032 166.777 378.54 167.192L359.89 182.951L355.335 186.8L348.466 181.042L327.591 163.541C327.098 163.127 326.473 162.901 325.829 162.902C325.185 162.904 324.561 163.132 324.069 163.548L303.263 181.129L282.128 198.986C282.021 199.077 281.945 199.198 281.909 199.334C281.873 199.469 281.88 199.612 281.928 199.744C281.976 199.875 282.064 199.989 282.179 200.069C282.294 200.149 282.431 200.192 282.571 200.192L325.901 200.108L339.616 200.082L339.482 200.195L380.365 200.116L419.375 200.041C419.515 200.041 419.652 199.998 419.766 199.917C419.881 199.837 419.968 199.723 420.016 199.591C420.064 199.459 420.07 199.316 420.034 199.181C419.997 199.045 419.92 198.925 419.813 198.834Z" fill="#3D4556"/>
<path d="M598.316 452H467.069C466.888 452 466.714 451.928 466.586 451.8C466.458 451.672 466.386 451.498 466.386 451.317C466.386 451.135 466.458 450.962 466.586 450.833C466.714 450.705 466.888 450.633 467.069 450.633H598.316C598.498 450.633 598.672 450.705 598.8 450.833C598.928 450.962 599 451.135 599 451.317C599 451.498 598.928 451.672 598.8 451.8C598.672 451.928 598.498 452 598.316 452Z" fill="#E7F9FF"/>
<path d="M412.919 90.1388C412.373 89.2519 411.652 88.4855 410.8 87.8864C409.948 87.2872 408.983 86.8678 407.964 86.6538C407.59 86.5753 407.21 86.5273 406.829 86.5103L354.747 39.9623C353.724 38.9112 352.359 38.2594 350.899 38.1242C350.61 38.0911 350.32 38.0819 350.03 38.0968C348.829 38.1514 347.669 38.5548 346.693 39.2577C345.717 39.9606 344.967 40.9326 344.535 42.0547C344.103 43.1769 344.007 44.4006 344.259 45.5763C344.512 46.752 345.101 47.8286 345.956 48.6747L365.896 66.0516L398.639 94.5804C398.666 95.1177 398.747 95.651 398.879 96.1725C399.271 97.6833 400.113 99.0393 401.293 100.061C402.474 101.082 403.937 101.721 405.489 101.892C406.904 102.057 408.338 101.82 409.625 101.209C410.645 100.732 411.55 100.039 412.277 99.1791C412.352 99.0903 412.42 99.0083 412.489 98.9126C413.445 97.6675 413.998 96.1606 414.075 94.5929C414.152 93.0253 413.749 91.4715 412.919 90.1388H412.919Z" fill="#FFB8B8"/>
<path d="M323.836 134.999L323.35 115.278L322.94 98.9127L322.66 87.4602L322.106 65.136C321.996 63.9407 321.541 62.8032 320.796 61.8623C320.05 60.9214 319.047 60.2178 317.908 59.8373C316.769 59.4569 315.544 59.4162 314.383 59.72C313.221 60.0239 312.173 60.6593 311.367 61.5485C311.177 61.7517 311.006 61.9712 310.854 62.2045C310.013 63.4094 309.634 64.8772 309.788 66.3386L311.005 98.9127L311.613 115.278L312.392 136.154C312.168 136.461 311.964 136.783 311.784 137.117C311.298 138.039 311.004 139.049 310.921 140.088C310.837 141.126 310.966 142.171 311.299 143.158C311.646 144.193 312.209 145.143 312.95 145.945C313.691 146.747 314.594 147.383 315.599 147.811C316.604 148.239 317.688 148.45 318.78 148.429C319.872 148.407 320.948 148.155 321.935 147.688C323.082 147.146 324.078 146.33 324.834 145.312C325.591 144.294 326.085 143.105 326.273 141.851C326.461 140.596 326.337 139.315 325.912 138.12C325.486 136.925 324.773 135.853 323.836 134.999H323.836Z" fill="#FFB8B8"/>
<path d="M370.729 79.1373L365.896 66.0516L358.076 44.8549C357.512 43.3127 356.607 41.9172 355.43 40.7721C354.252 39.6271 352.832 38.7617 351.274 38.2404C351.151 38.1994 351.022 38.1584 350.898 38.1242C349.39 37.6663 347.799 37.5404 346.237 37.7551C344.675 37.9698 343.177 38.5199 341.848 39.3678L315.51 56.0682C313.098 57.5942 311.373 59.9977 310.701 62.771C310.029 65.5442 310.461 68.4701 311.907 70.9305C315.201 76.6238 318.79 82.1412 322.66 87.4601C325.729 91.6352 331.444 92.0794 332.435 98.9126H351.855L371.515 81.2692L370.729 79.1373Z" fill="#E7F9FF"/>
<path d="M69.1539 239.064C77.9019 239.064 84.9935 231.975 84.9935 223.23C84.9935 214.485 77.9019 207.396 69.1539 207.396C60.4059 207.396 53.3143 214.485 53.3143 223.23C53.3143 231.975 60.4059 239.064 69.1539 239.064Z" fill="#A06161"/>
<path d="M108.04 212.331C108.196 212.455 108.348 212.586 108.494 212.726C109.222 213.411 109.797 214.242 110.18 215.165C110.564 216.087 110.749 217.081 110.722 218.08C110.695 219.078 110.457 220.06 110.024 220.961C109.591 221.862 108.973 222.661 108.209 223.306C108.031 223.455 107.846 223.595 107.653 223.725L108.725 259.904C108.755 261.088 108.403 262.251 107.72 263.219C107.037 264.187 106.061 264.91 104.934 265.279L104.869 265.293L75.483 268.422C74.6841 268.506 73.8762 268.432 73.1061 268.203C72.336 267.975 71.6189 267.595 70.9962 267.088C70.3735 266.58 69.8575 265.955 69.478 265.247C69.0986 264.539 68.8632 263.763 68.7854 262.963C68.7077 262.164 68.7891 261.357 69.0251 260.59C69.261 259.822 69.6467 259.108 70.16 258.491C70.6732 257.873 71.3038 257.363 72.0154 256.99C72.727 256.617 73.5054 256.388 74.3058 256.318L95.2535 254.474L98.8762 223.143C98.6392 222.933 98.4173 222.707 98.2121 222.466C97.0762 221.122 96.4805 219.405 96.5406 217.646C96.6007 215.888 97.3122 214.215 98.5372 212.952C99.7621 211.689 101.413 210.925 103.169 210.811C104.925 210.696 106.661 211.238 108.04 212.331H108.04Z" fill="#A06161"/>
<path d="M95.2415 443.596H103.148L106.91 413.111H95.2402L95.2415 443.596Z" fill="#A06161"/>
<path d="M93.2251 441.016L108.796 441.015H108.796C110.099 441.015 111.39 441.271 112.594 441.77C113.798 442.268 114.891 442.999 115.813 443.92C116.734 444.841 117.465 445.935 117.964 447.138C118.463 448.342 118.719 449.631 118.719 450.934V451.256L93.2256 451.257L93.2251 441.016Z" fill="#2E3341"/>
<path d="M16.6561 432.668L23.4495 436.711L42.2841 412.442L32.2574 406.474L16.6561 432.668Z" fill="#A06161"/>
<path d="M16.2438 429.42L29.6225 437.383L29.6231 437.383C30.7427 438.049 31.7201 438.93 32.4994 439.974C33.2787 441.018 33.8446 442.205 34.1649 443.468C34.4852 444.73 34.5536 446.044 34.3661 447.333C34.1786 448.622 33.739 449.861 33.0723 450.98L32.9073 451.257L11.0024 438.22L16.2438 429.42Z" fill="#2E3341"/>
<path d="M105.014 432.829H96.1604C95.4435 432.83 94.7517 432.565 94.2187 432.086C93.6856 431.607 93.3493 430.947 93.2747 430.234L84.3491 346.365C84.3266 346.154 84.2352 345.956 84.089 345.802C83.9429 345.648 83.7501 345.546 83.5404 345.512C83.3307 345.479 83.1157 345.515 82.9287 345.616C82.7416 345.716 82.5929 345.875 82.5054 346.069L66.4034 381.71L37.8958 428.178C37.5268 428.774 36.9556 429.217 36.2866 429.426C35.6176 429.635 34.8957 429.596 34.2531 429.316L22.8645 424.308C22.4879 424.142 22.1509 423.898 21.8758 423.592C21.6007 423.286 21.3937 422.926 21.2686 422.534C21.1436 422.142 21.1033 421.728 21.1504 421.319C21.1975 420.911 21.331 420.517 21.5419 420.164L47.7483 376.3L55.7856 339.342C53.2577 323.315 64.0945 299.487 64.2043 299.247L64.258 299.131L94.1082 287.468L94.2579 287.651C106.03 326.268 113.203 367.827 107.907 430.171C107.841 430.894 107.509 431.567 106.974 432.058C106.439 432.55 105.74 432.824 105.014 432.829Z" fill="#2E3341"/>
<path d="M63.0555 303.036L62.9164 302.744C62.85 302.604 56.2126 288.61 51.096 273.654C50.1127 270.761 49.7409 267.697 50.0044 264.653C50.2678 261.61 51.1606 258.654 52.6262 255.974C54.111 253.266 56.1422 250.895 58.5912 249.013C61.0402 247.13 63.8537 245.777 66.8533 245.038C72.0608 243.79 77.5434 244.454 82.3022 246.908C87.061 249.363 90.7794 253.445 92.7799 258.41C96.8384 268.556 95.5449 279.384 94.3277 287.901L94.3035 288.071L94.1482 288.145L63.0555 303.036Z" fill="#3D4556"/>
<path d="M88.359 214.286H63.2076V203.326C68.728 201.134 74.1301 199.269 77.3955 203.326C80.3032 203.326 83.0918 204.481 85.1479 206.536C87.2039 208.591 88.359 211.379 88.359 214.286V214.286Z" fill="#2E3341"/>
<path d="M61.8151 201.392C46.779 201.392 42.5705 220.232 42.5705 230.861C42.5705 236.788 45.2521 238.908 49.4661 239.626L50.9543 231.692L54.4399 239.967C55.6236 239.973 56.8671 239.95 58.1563 239.926L59.3381 237.494L61.9735 239.883C72.5285 239.898 81.0594 241.436 81.0594 230.861C81.0594 220.232 77.3685 201.392 61.8151 201.392Z" fill="#2E3341"/>
<path d="M131.931 452H0.683578C0.502282 452 0.328411 451.928 0.200215 451.8C0.0720191 451.672 0 451.498 0 451.317C0 451.135 0.0720191 450.962 0.200215 450.833C0.328411 450.705 0.502282 450.633 0.683578 450.633H131.931C132.112 450.633 132.286 450.705 132.414 450.833C132.542 450.962 132.614 451.135 132.614 451.317C132.614 451.498 132.542 451.672 132.414 451.8C132.286 451.928 132.112 452 131.931 452Z" fill="#E7F9FF"/>
<path d="M134.398 227.187H105.005C103.283 227.185 101.632 226.5 100.415 225.283C99.1973 224.066 98.5125 222.416 98.5106 220.695V191.312C98.5125 189.591 99.1973 187.941 100.415 186.724C101.632 185.507 103.283 184.822 105.005 184.82H134.398C136.12 184.822 137.771 185.507 138.988 186.724C140.206 187.941 140.89 189.591 140.892 191.312V220.695C140.89 222.416 140.206 224.066 138.988 225.283C137.771 226.5 136.12 227.185 134.398 227.187Z" fill="white"/>
<path d="M134.398 227.187H105.005C103.283 227.185 101.632 226.5 100.415 225.283C99.1973 224.066 98.5125 222.416 98.5106 220.695V191.312C98.5125 189.591 99.1973 187.941 100.415 186.724C101.632 185.507 103.283 184.822 105.005 184.82H134.398C136.12 184.822 137.771 185.507 138.988 186.724C140.206 187.941 140.89 189.591 140.892 191.312V220.695C140.89 222.416 140.206 224.066 138.988 225.283C137.771 226.5 136.12 227.185 134.398 227.187ZM105.005 186.187C103.645 186.189 102.342 186.729 101.381 187.69C100.42 188.651 99.8792 189.953 99.8777 191.312V220.695C99.8792 222.054 100.42 223.356 101.381 224.317C102.342 225.278 103.645 225.818 105.005 225.82H134.398C135.758 225.818 137.061 225.278 138.022 224.317C138.983 223.356 139.524 222.054 139.525 220.695V191.312C139.524 189.953 138.983 188.651 138.022 187.69C137.061 186.729 135.758 186.189 134.398 186.187H105.005Z" fill="#3D4556"/>
<path d="M129.272 215.228H110.131C109.588 215.228 109.066 215.012 108.682 214.627C108.298 214.243 108.081 213.722 108.081 213.178V198.829C108.081 198.285 108.298 197.764 108.682 197.38C109.066 196.995 109.588 196.779 110.131 196.779H115.52C115.87 196.777 116.215 196.866 116.521 197.037C116.827 197.208 117.084 197.455 117.266 197.754L118.769 200.195H129.272C129.815 200.196 130.337 200.412 130.721 200.796C131.105 201.181 131.322 201.702 131.322 202.245V213.178C131.322 213.722 131.105 214.243 130.721 214.627C130.337 215.012 129.815 215.228 129.272 215.228Z" fill="#E1ECEF"/>
<path d="M128.649 222.478C128.745 222.653 128.833 222.833 128.914 223.018C129.319 223.932 129.526 224.921 129.521 225.92C129.517 226.919 129.301 227.906 128.889 228.816C128.476 229.727 127.876 230.539 127.127 231.202C126.378 231.864 125.498 232.36 124.544 232.659C124.322 232.727 124.097 232.784 123.869 232.829L110.813 266.589C110.381 267.692 109.605 268.627 108.6 269.254C107.595 269.882 106.414 270.169 105.233 270.073L105.167 270.06L76.8691 261.545C76.0997 261.313 75.3838 260.931 74.7628 260.422C74.1418 259.912 73.628 259.285 73.251 258.575C72.874 257.866 72.6413 257.089 72.5664 256.289C72.4915 255.49 72.5758 254.683 72.8144 253.916C73.0531 253.149 73.4414 252.437 73.9569 251.821C74.4724 251.205 75.1049 250.697 75.8179 250.327C76.5308 249.956 77.3101 249.731 78.1108 249.663C78.9114 249.596 79.7175 249.687 80.4825 249.933L100.505 256.359L116.006 228.888C115.869 228.603 115.752 228.308 115.656 228.007C115.131 226.328 115.249 224.514 115.987 222.916C116.725 221.319 118.03 220.053 119.649 219.364C121.269 218.675 123.086 218.612 124.749 219.188C126.412 219.763 127.802 220.936 128.649 222.478H128.649Z" fill="#A06161"/>
</g>
<defs>
<clipPath id="clip0">
<rect width="599" height="452" fill="white"/>
</clipPath>
</defs>
</svg>
