<svg width="599" height="478" viewBox="0 0 599 478" fill="none" xmlns="http://www.w3.org/2000/svg">
<g clip-path="url(#clip0)">
<path d="M492.544 326.165C492.082 326.964 491.466 327.664 490.732 328.226C489.999 328.787 489.162 329.198 488.269 329.436C487.376 329.673 486.446 329.732 485.53 329.61C484.615 329.487 483.732 329.185 482.934 328.721C482.135 328.257 481.435 327.641 480.875 326.906C480.315 326.172 479.905 325.334 479.669 324.441C479.433 323.548 479.375 322.617 479.499 321.702C479.623 320.787 479.926 319.905 480.391 319.107C480.588 318.777 480.809 318.463 481.053 318.168L475.141 276.035L474.964 274.772L473.764 266.175L473.587 264.936L474.241 264.967L485.694 265.49L488.765 265.629L489.15 273.472L491.328 317.567C492.466 318.656 493.205 320.096 493.426 321.655C493.646 323.215 493.336 324.803 492.544 326.165Z" fill="#FFB8B8"/>
<path d="M474.998 275.156L489.541 273.821C490.296 273.75 490.991 273.383 491.476 272.801C491.961 272.219 492.197 271.469 492.131 270.714L489.433 240.471C489.303 239.003 488.879 237.575 488.186 236.273C487.494 234.971 486.548 233.821 485.403 232.891C484.258 231.961 482.939 231.27 481.523 230.859C480.106 230.448 478.622 230.326 477.158 230.498C475.693 230.671 474.278 231.136 472.996 231.866C471.715 232.595 470.592 233.574 469.696 234.745C468.799 235.916 468.146 237.254 467.776 238.682C467.406 240.109 467.326 241.597 467.541 243.056L471.902 272.72C472.002 273.399 472.343 274.02 472.863 274.47C473.382 274.919 474.046 275.167 474.733 275.168C474.821 275.168 474.91 275.164 474.998 275.156Z" fill="#DFF4FB"/>
<path d="M486.02 250.722C487.491 246.555 487.559 242.022 486.214 237.813C484.869 233.604 482.185 229.951 478.571 227.409C473.086 223.657 465.582 222.31 457.5 231.931C441.337 251.174 437.103 272.34 437.103 272.34L470.2 277.728C470.2 277.728 481.457 263.97 486.02 250.722Z" fill="#DFF4FB"/>
<g opacity="0.2">
<path opacity="0.2" d="M465.19 227.313C467.635 234.049 470.131 241.055 470.293 248.575C470.454 254.321 469.128 260.012 466.444 265.096C463.851 269.796 460.063 273.233 455.893 274.67C455.111 275.002 454.248 275.1 453.411 274.95C452.946 274.819 452.523 274.569 452.185 274.224C451.847 273.879 451.605 273.452 451.483 272.984C451.106 271.657 451.559 270.185 452.005 268.899C456.953 254.63 459.352 242.233 464.299 227.963L465.19 227.313Z" fill="black"/>
</g>
<path d="M432.492 467.472L423.056 467.471L418.567 431.074L432.494 431.075L432.492 467.472Z" fill="#FFB8B8"/>
<path d="M404.857 476.232L434.514 476.234L434.514 464.775L416.316 464.775C414.811 464.775 413.321 465.071 411.931 465.647C410.54 466.222 409.277 467.066 408.213 468.13C407.149 469.194 406.305 470.457 405.729 471.848C405.153 473.238 404.857 474.728 404.857 476.232Z" fill="#2E3C41"/>
<path d="M510.072 459.241L501.112 462.203L485.426 429.054L498.65 424.684L510.072 459.241Z" fill="#FFB8B8"/>
<path d="M486.583 476.234L514.742 466.927L511.146 456.047L493.867 461.758C490.981 462.712 488.593 464.773 487.227 467.488C485.861 470.202 485.63 473.348 486.583 476.234L486.583 476.234Z" fill="#2E3C41"/>
<path d="M465.246 217.866C454.805 217.866 446.341 209.403 446.341 198.962C446.341 188.521 454.805 180.058 465.246 180.058C475.686 180.058 484.15 188.521 484.15 198.962C484.15 209.403 475.686 217.866 465.246 217.866Z" fill="#FFB8B8"/>
<path d="M448.693 457.339L457.457 399.501C457.55 398.883 457.855 398.318 458.32 397.9C458.784 397.483 459.379 397.24 460.003 397.213C460.626 397.185 461.24 397.376 461.739 397.751C462.238 398.126 462.592 398.663 462.738 399.27L476.083 454.389C476.294 455.234 476.812 455.969 477.536 456.451C478.261 456.933 479.139 457.127 479.999 456.994L516.81 451.078C517.298 451 517.764 450.818 518.175 450.545C518.587 450.271 518.936 449.913 519.198 449.494C519.46 449.074 519.629 448.604 519.694 448.114C519.759 447.624 519.718 447.126 519.575 446.653L471.576 288.407C471.44 287.957 471.424 287.479 471.529 287.021L473.128 280.096C473.303 279.345 473.222 278.557 472.898 277.857C472.573 277.158 472.024 276.587 471.337 276.237C464.801 272.902 448.25 265.968 435.753 273.563C435.347 273.81 434.996 274.138 434.721 274.525C434.446 274.912 434.253 275.351 434.153 275.816L396.656 452.049C396.554 452.528 396.555 453.023 396.659 453.502C396.762 453.981 396.966 454.432 397.257 454.827C397.548 455.221 397.92 455.549 398.347 455.789C398.774 456.029 399.247 456.176 399.735 456.22L444.96 460.269C445.064 460.278 445.168 460.283 445.27 460.283C446.098 460.281 446.898 459.984 447.526 459.444C448.154 458.904 448.568 458.157 448.693 457.339Z" fill="#2E3C41"/>
<path d="M418.77 313.355C418.32 312.437 418.077 311.433 418.058 310.411C418.039 309.39 418.244 308.377 418.658 307.444C419.073 306.51 419.687 305.679 420.457 305.008C421.228 304.338 422.136 303.844 423.118 303.563L446.742 255.283L458.929 264.359L431.964 308.818C432.327 310.499 432.062 312.255 431.217 313.753C430.373 315.251 429.008 316.387 427.382 316.946C425.756 317.506 423.981 317.449 422.393 316.787C420.806 316.125 419.517 314.904 418.77 313.355H418.77Z" fill="#FFB8B8"/>
<path d="M460.411 267.372L475.111 240.811C476.001 239.214 476.478 237.421 476.5 235.593C476.521 233.766 476.087 231.962 475.236 230.345C474.541 228.983 473.556 227.789 472.352 226.846C470.8 225.609 468.942 224.814 466.975 224.544C465.009 224.275 463.006 224.541 461.177 225.314C458.634 226.419 456.584 228.418 455.414 230.932L442.528 257.71C442.21 258.371 442.158 259.128 442.381 259.826C442.605 260.525 443.087 261.111 443.73 261.464L456.523 268.495C457.188 268.86 457.97 268.947 458.699 268.736C459.427 268.525 460.043 268.035 460.411 267.372Z" fill="#DFF4FB"/>
<path d="M474.632 182.462C473.062 181.914 471.599 181.096 470.31 180.046C469.671 179.512 469.181 178.824 468.885 178.046C468.589 177.268 468.498 176.427 468.621 175.604C469.126 173.346 471.768 172.113 474.068 172.367C476.367 172.621 478.382 173.961 480.295 175.262C481.981 176.407 483.719 177.607 484.769 179.354C485.819 181.1 485.98 183.558 484.583 185.042C483.212 186.498 480.809 186.52 479.015 185.638C477.22 184.755 475.892 183.168 474.619 181.625L474.632 182.462Z" fill="#2E3C41"/>
<path d="M479.8 175.881C478.814 170.646 483.978 165.667 489.304 165.52C494.629 165.373 499.488 168.927 502.47 173.342C508.77 182.67 508.065 194.96 506.185 206.058C504.305 217.156 501.502 228.609 504.384 239.49C506.021 245.356 509.212 250.67 513.619 254.872C518.027 259.073 523.488 262.007 529.425 263.362C524.18 267.196 516.689 265.928 510.968 262.85C498.26 256.014 490.711 240.7 493.028 226.458C494.171 219.434 497.415 212.951 499.589 206.175C501.764 199.399 502.798 191.732 499.617 185.365C496.436 178.999 487.742 175.119 481.827 179.076L479.8 175.881Z" fill="#2E3C41"/>
<path d="M465.692 206.54C466.736 203.478 467.618 199.559 464.172 197.791C463.427 197.43 462.618 197.222 461.792 197.178C460.966 197.135 460.14 197.257 459.361 197.537C456.12 198.631 452.535 199.552 449.065 199.015C447.772 198.851 446.524 198.43 445.397 197.775C444.27 197.12 443.285 196.245 442.503 195.202C440.02 191.613 441.103 186.396 444.057 183.183C445.875 181.273 448.217 179.942 450.789 179.358C453.361 178.774 456.048 178.962 458.513 179.899C462.597 176.974 468.239 176.719 472.896 178.602C477.553 180.484 481.263 184.281 483.757 188.64C485.997 192.374 487.142 196.661 487.064 201.014C486.907 204.064 486.017 207.03 484.47 209.663C482.923 212.296 480.764 214.517 478.177 216.139C477.174 216.797 476.016 217.181 474.819 217.251C473.622 217.321 472.427 217.075 471.355 216.538C471.355 216.538 468.34 214.843 466.982 212.328C465.939 210.396 465.134 208.177 465.692 206.54Z" fill="#2E3C41"/>
<path d="M129.347 295.836H222.59C225.128 295.833 227.562 294.823 229.357 293.029C231.151 291.234 232.161 288.8 232.164 286.262V136.29C232.161 133.752 231.151 131.318 229.357 129.524C227.562 127.729 225.128 126.719 222.59 126.716H129.347V295.836ZM222.59 128.256C224.72 128.258 226.762 129.105 228.269 130.612C229.775 132.118 230.622 134.16 230.625 136.29V286.262C230.622 288.392 229.775 290.434 228.269 291.941C226.762 293.447 224.72 294.294 222.59 294.297H130.887V128.256H222.59Z" fill="#3D4C56"/>
<path d="M131.758 126.716H38.5159C35.9776 126.719 33.5442 127.729 31.7493 129.524C29.9545 131.318 28.9449 133.752 28.9419 136.29V286.262C28.9449 288.8 29.9545 291.234 31.7493 293.029C33.5442 294.823 35.9776 295.833 38.5159 295.836H131.758V126.716Z" fill="#3D4C56"/>
<path d="M198.808 87.8782H199.86V136.816H198.808V87.8782Z" fill="#2E3C41"/>
<path d="M199.019 88.9307C201.205 88.9307 203.341 88.2826 205.159 87.0684C206.976 85.8541 208.392 84.1283 209.229 82.109C210.065 80.0898 210.284 77.8679 209.857 75.7243C209.431 73.5807 208.379 71.6117 206.833 70.0662C205.288 68.5208 203.319 67.4683 201.175 67.0419C199.031 66.6155 196.81 66.8344 194.79 67.6708C192.771 68.5072 191.045 69.9235 189.831 71.7408C188.617 73.5581 187.969 75.6946 187.969 77.8802C187.969 80.811 189.133 83.6217 191.205 85.6941C193.278 87.7665 196.088 88.9307 199.019 88.9307ZM199.019 67.882C200.997 67.882 202.93 68.4684 204.574 69.567C206.218 70.6656 207.5 72.2271 208.256 74.054C209.013 75.881 209.211 77.8913 208.825 79.8307C208.439 81.7701 207.487 83.5516 206.089 84.9499C204.691 86.3482 202.909 87.3004 200.97 87.6862C199.03 88.072 197.02 87.874 195.193 87.1172C193.366 86.3605 191.805 85.079 190.706 83.4348C189.607 81.7906 189.021 79.8576 189.021 77.8802C189.021 75.2285 190.074 72.6854 191.949 70.8104C193.824 68.9354 196.368 67.882 199.019 67.882Z" fill="#2E3C41"/>
<path d="M91.1298 22.1011H92.1823V135.238H91.1298V22.1011Z" fill="#2E3C41"/>
<path d="M91.341 22.1011C93.5266 22.1011 95.6631 21.453 97.4803 20.2388C99.2976 19.0245 100.714 17.2987 101.55 15.2794C102.387 13.2602 102.606 11.0383 102.179 8.89471C101.753 6.75111 100.7 4.78209 99.1549 3.23664C97.6095 1.69119 95.6405 0.638727 93.4969 0.212339C91.3533 -0.214049 89.1313 0.00478664 87.1121 0.841177C85.0929 1.67757 83.3671 3.09395 82.1528 4.9112C80.9386 6.72846 80.2905 8.86498 80.2905 11.0506C80.2905 13.9814 81.4547 16.7921 83.5271 18.8645C85.5995 20.9369 88.4102 22.1011 91.341 22.1011ZM91.341 1.05245C93.3184 1.05245 95.2515 1.63882 96.8956 2.73743C98.5398 3.83604 99.8213 5.39754 100.578 7.22446C101.335 9.05138 101.533 11.0617 101.147 13.0011C100.761 14.9406 99.809 16.7221 98.4107 18.1203C97.0125 19.5186 95.231 20.4708 93.2915 20.8566C91.3521 21.2424 89.3418 21.0444 87.5149 20.2876C85.688 19.5309 84.1265 18.2494 83.0279 16.6052C81.9293 14.961 81.3429 13.028 81.3429 11.0506C81.3429 8.39891 82.3962 5.85585 84.2713 3.98084C86.1463 2.10582 88.6893 1.05245 91.341 1.05245Z" fill="#2E3C41"/>
<path d="M130.502 247.116C139.798 247.116 148.713 243.424 155.287 236.85C161.86 230.277 165.553 221.361 165.553 212.065C165.553 202.769 161.86 193.854 155.287 187.281C148.713 180.707 139.798 177.014 130.502 177.014V247.116Z" fill="#DFF4FB"/>
<path d="M130.502 177.014C121.206 177.014 112.29 180.707 105.717 187.281C99.1437 193.854 95.4508 202.769 95.4508 212.065C95.4508 221.361 99.1437 230.277 105.717 236.85C112.29 243.424 121.206 247.116 130.502 247.116V177.014Z" fill="#E6E6E6"/>
<path d="M8.94568 315.573H251.006C253.377 315.57 255.651 314.627 257.328 312.95C259.005 311.273 259.949 308.999 259.951 306.627V115.399C259.949 113.027 259.005 110.753 257.328 109.076C255.651 107.399 253.377 106.456 251.006 106.453H8.94568C6.57396 106.456 4.30014 107.399 2.62308 109.076C0.946014 110.753 0.00268555 113.027 0 115.399V306.627C0.00268555 308.999 0.946014 311.273 2.62308 312.95C4.30014 314.627 6.57396 315.57 8.94568 315.573ZM251.006 107.505C253.098 107.508 255.105 108.34 256.584 109.82C258.064 111.3 258.896 113.306 258.899 115.399V306.627C258.896 308.72 258.064 310.726 256.584 312.206C255.105 313.686 253.098 314.518 251.006 314.521H8.94568C6.85298 314.518 4.84668 313.686 3.36691 312.206C1.88718 310.726 1.05478 308.72 1.0524 306.627V115.399C1.05478 113.306 1.88718 111.3 3.36691 109.82C4.84668 108.34 6.85298 107.508 8.94568 107.505H251.006Z" fill="#3D4C56"/>
<path d="M145.699 56.957H146.752V191.464H145.699V56.957Z" fill="#2E3C41"/>
<path d="M145.911 57.3734C148.096 57.3734 150.233 56.7253 152.05 55.511C153.867 54.2968 155.284 52.5709 156.12 50.5517C156.956 48.5324 157.175 46.3105 156.749 44.1669C156.322 42.0233 155.27 40.0543 153.725 38.5089C152.179 36.9634 150.21 35.9109 148.066 35.4846C145.923 35.0582 143.701 35.277 141.682 36.1134C139.662 36.9498 137.937 38.3662 136.722 40.1834C135.508 42.0007 134.86 44.1372 134.86 46.3228C134.86 49.2536 136.024 52.0643 138.097 54.1367C140.169 56.2091 142.98 57.3734 145.911 57.3734ZM145.911 36.3247C147.888 36.3247 149.821 36.911 151.465 38.0097C153.109 39.1083 154.391 40.6698 155.148 42.4967C155.904 44.3236 156.102 46.3339 155.717 48.2733C155.331 50.2128 154.379 51.9943 152.98 53.3925C151.582 54.7908 149.801 55.743 147.861 56.1288C145.922 56.5146 143.911 56.3166 142.084 55.5599C140.258 54.8031 138.696 53.5216 137.597 51.8775C136.499 50.2333 135.912 48.3002 135.912 46.3228C135.912 43.6711 136.966 41.1281 138.841 39.2531C140.716 37.378 143.259 36.3247 145.911 36.3247Z" fill="#2E3C41"/>
<path d="M214.54 287.095C210.714 287.095 207.612 283.993 207.612 280.167C207.612 276.342 210.714 273.24 214.54 273.24C218.365 273.24 221.467 276.342 221.467 280.167C221.467 283.993 218.365 287.095 214.54 287.095Z" fill="#3D4C56"/>
<path d="M44.4378 287.095C40.612 287.095 37.5106 283.993 37.5106 280.167C37.5106 276.342 40.612 273.24 44.4378 273.24C48.2636 273.24 51.3651 276.342 51.3651 280.167C51.3651 283.993 48.2636 287.095 44.4378 287.095Z" fill="#E6E6E6"/>
<path d="M214.54 149.32C210.714 149.32 207.612 146.219 207.612 142.393C207.612 138.567 210.714 135.466 214.54 135.466C218.365 135.466 221.467 138.567 221.467 142.393C221.467 146.219 218.365 149.32 214.54 149.32Z" fill="#3D4C56"/>
<path d="M44.4378 149.32C40.612 149.32 37.5106 146.219 37.5106 142.393C37.5106 138.567 40.612 135.466 44.4378 135.466C48.2636 135.466 51.3651 138.567 51.3651 142.393C51.3651 146.219 48.2636 149.32 44.4378 149.32Z" fill="#E6E6E6"/>
<path d="M202.176 92.088C196.364 92.088 191.652 87.3761 191.652 81.5637C191.652 75.7512 196.364 71.0393 202.176 71.0393C207.989 71.0393 212.701 75.7512 212.701 81.5637C212.701 87.3761 207.989 92.088 202.176 92.088Z" fill="#F2F2F2"/>
<path d="M94.4983 25.2584C88.6859 25.2584 83.974 20.5465 83.974 14.7341C83.974 8.92163 88.6859 4.20972 94.4983 4.20972C100.311 4.20972 105.023 8.92163 105.023 14.7341C105.023 20.5465 100.311 25.2584 94.4983 25.2584Z" fill="#3D4C56"/>
<path d="M149.068 60.5306C143.255 60.5306 138.543 55.8187 138.543 50.0063C138.543 44.1938 143.255 39.4819 149.068 39.4819C154.88 39.4819 159.592 44.1938 159.592 50.0063C159.592 55.8187 154.88 60.5306 149.068 60.5306Z" fill="#DFF4FB"/>
</g>
<defs>
<clipPath id="clip0">
<rect width="599" height="477.978" fill="white" transform="matrix(-1 0 0 1 599 0)"/>
</clipPath>
</defs>
</svg>
