<svg width="599" height="449" viewBox="0 0 599 449" fill="none" xmlns="http://www.w3.org/2000/svg">
<g clip-path="url(#clip0)">
<path opacity="0.5" d="M562.79 384.303C561.707 379.079 558.152 375.142 555.534 370.719C552.388 365.267 550.549 358.928 550.209 352.363C549.869 345.797 551.041 339.245 553.602 333.389C556.119 327.789 560.065 321.998 558.636 315.883C557.68 311.769 554.502 308.951 551.38 306.743C539.523 298.393 525.836 294.278 512.005 294.903C495.051 295.713 478.154 303.631 461.528 299.709C445.336 295.875 431.617 286.382 414.676 285.256C402.02 284.417 389.504 285.359 376.823 283.74C345.491 279.766 313.929 278.885 282.471 281.106C251.015 278.885 219.455 279.767 188.125 283.74C175.476 285.359 162.953 284.417 150.272 285.256C133.281 286.375 119.594 295.882 103.395 299.709C86.7626 303.638 69.872 295.713 52.9185 294.903C39.0868 294.278 25.4004 298.393 13.5427 306.743C10.3962 308.951 7.24964 311.769 6.2868 315.883C4.86456 321.99 8.80403 327.782 11.3213 333.389C13.884 339.244 15.0577 345.795 14.7202 352.361C14.3826 358.926 12.5461 365.265 9.40187 370.719C6.78395 375.134 3.22836 379.079 2.14595 384.303C-0.0314502 394.811 8.70334 404.068 17.2493 408.241C40.5652 419.639 68.9218 414.128 90.249 430C99.8082 437.123 108.172 448.559 119.499 448.985C127.158 449.272 134.124 444.298 140.814 439.919C150.824 433.366 161.289 427.811 172.097 423.311C181.536 419.382 191.536 416.232 201.498 417.535C216.708 419.499 282.458 456.646 312.099 434.695C332.4 419.647 348.234 419.521 363.482 417.527C373.444 416.225 383.437 419.374 392.883 423.304C403.691 427.803 414.155 433.359 424.166 439.912C430.849 444.29 437.822 449.265 445.48 448.978C456.808 448.551 465.171 437.116 474.731 429.993C496.045 414.113 524.396 419.632 547.73 408.233C556.232 404.046 564.973 394.819 562.79 384.303Z" fill="url(#paint0_linear)"/>
<path d="M559.706 384.09C558.636 378.939 555.118 375.024 552.532 370.653C549.427 365.257 547.614 358.987 547.282 352.495C546.95 346.003 548.111 339.525 550.644 333.735C553.161 328.194 557.038 322.469 555.628 316.427C554.678 312.358 551.538 309.569 548.454 307.391C536.728 299.131 523.192 295.059 509.512 295.676C492.748 296.471 476.04 304.308 459.589 300.422C443.567 296.64 430.012 287.236 413.228 286.125C400.711 285.3 388.308 286.228 375.797 284.653C344.81 280.722 313.595 279.851 282.483 282.048C251.372 279.851 220.157 280.722 189.17 284.653C176.659 286.257 164.256 285.322 151.739 286.125C134.961 287.228 121.4 296.633 105.378 300.422C88.9337 304.308 72.2193 296.471 55.4546 295.676C41.775 295.059 28.2395 299.131 16.513 307.391C13.4294 309.599 10.2892 312.358 9.33891 316.427C7.92926 322.469 11.8561 328.201 14.323 333.735C16.8563 339.525 18.0172 346.003 17.6852 352.495C17.3532 358.987 15.5404 365.257 12.4351 370.653C9.84236 375.024 6.33082 378.917 5.261 384.09C3.05213 394.48 11.6925 403.634 20.1315 407.726C43.1957 418.992 71.2376 413.539 92.3131 429.242C101.753 436.284 110.041 447.602 121.261 448.021C128.813 448.308 135.735 443.385 142.343 439.051C152.245 432.568 162.596 427.071 173.286 422.619C182.631 418.727 192.511 415.614 202.366 416.902C217.47 418.874 282.477 455.586 311.765 433.878C331.846 418.999 347.504 418.874 362.582 416.902C372.437 415.614 382.323 418.727 391.662 422.619C402.353 427.071 412.703 432.568 422.605 439.051C429.219 443.378 436.11 448.301 443.687 448.021C454.889 447.602 463.164 436.292 472.635 429.242C493.717 413.539 521.759 418.992 544.817 407.726C553.224 403.634 561.865 394.48 559.706 384.09Z" fill="#2E3C41"/>
<path opacity="0.6" d="M21.988 161.315C23.7878 160.58 25.7009 159.88 27.5825 160.263C30.7291 160.903 32.938 164.391 33.8756 167.975C34.8133 171.559 34.7818 175.334 35.3797 179.013C35.9775 182.692 37.406 186.497 40.2253 188.255C43.0446 190.014 46.3737 189.322 49.5013 188.895C53.6036 188.342 57.7444 188.298 61.8546 188.763C65.3032 189.153 69.356 190.514 70.3692 194.392C71.1998 197.557 69.5511 200.787 68.4812 203.841C66.4297 209.551 66.2661 216.299 68.6134 221.847C70.9607 227.396 75.7183 231.531 77.7069 237.389C78.2831 238.854 78.4504 240.494 78.1852 242.076C77.891 243.184 77.4071 244.211 76.7629 245.093C75.2022 247.44 73.3395 249.508 71.9173 251.981C68.9532 257.132 68.1414 263.534 67.8016 269.722C67.4626 275.808 67.4921 281.913 67.8897 287.994C64.0257 286.522 59.759 287.832 55.7755 286.868C47.2987 284.822 42.0063 273.093 33.3722 272.379C29.288 272.04 24.8954 274.292 21.2517 272.107C19.511 270.934 18.1487 269.124 17.3752 266.956C15.8351 263.118 15.4837 258.774 16.3809 254.667C17.0102 251.826 18.2688 249.045 18.0234 246.123C17.8157 243.621 16.5319 241.414 15.0593 239.582C10.8619 234.372 4.77015 231.185 1.75577 224.953C0.384781 221.992 -0.187285 218.615 0.11489 215.267C0.417065 211.919 1.57931 208.756 3.4486 206.196C4.52447 204.968 5.54331 203.673 6.50075 202.318C7.94815 199.933 8.38867 196.924 8.58375 194.002C8.9991 187.004 7.95445 179.594 9.91159 172.795C11.6674 166.643 17.0291 163.376 21.988 161.315Z" fill="#2E3C41"/>
<path opacity="0.6" d="M22.0761 161.521C22.0761 161.521 39.2625 273.129 61.5777 286.441" stroke="#535461" stroke-miterlimit="10"/>
<path opacity="0.6" d="M69.8909 192.413C69.8909 192.413 51.4836 195.356 33.0953 217.469" stroke="#535461" stroke-miterlimit="10"/>
<path opacity="0.6" d="M36.3299 230.435C36.3299 230.435 22.1642 214.246 0.0314636 216.991" stroke="#535461" stroke-miterlimit="10"/>
<path opacity="0.6" d="M77.9963 237.477C77.9963 237.477 52.1444 240.045 42.5726 251.65" stroke="#535461" stroke-miterlimit="10"/>
<path opacity="0.6" d="M46.4429 262.459C46.4429 262.459 31.9688 259.516 18.6086 269.487" stroke="#535461" stroke-miterlimit="10"/>
<path d="M47.1414 0V18.3892V364.398H504.604V18.3892V0H47.1414Z" fill="url(#paint1_linear)"/>
<path d="M499.758 16.5348H53.9254V357.805H499.758V16.5348Z" fill="white"/>
<path d="M499.758 0.301636H53.9254V25.4092H499.758V0.301636Z" fill="#EEEEEE"/>
<path d="M70.8915 18.5583C73.7658 18.5583 76.0958 15.8337 76.0958 12.4728C76.0958 9.11181 73.7658 6.38721 70.8915 6.38721C68.0172 6.38721 65.6871 9.11181 65.6871 12.4728C65.6871 15.8337 68.0172 18.5583 70.8915 18.5583Z" fill="#FF5252"/>
<path d="M85.2082 18.5583C88.0825 18.5583 90.4126 15.8337 90.4126 12.4728C90.4126 9.11181 88.0825 6.38721 85.2082 6.38721C82.3339 6.38721 80.0038 9.11181 80.0038 12.4728C80.0038 15.8337 82.3339 18.5583 85.2082 18.5583Z" fill="#FFFF00"/>
<path d="M99.525 18.5583C102.399 18.5583 104.729 15.8337 104.729 12.4728C104.729 9.11181 102.399 6.38721 99.525 6.38721C96.6507 6.38721 94.3206 9.11181 94.3206 12.4728C94.3206 15.8337 96.6507 18.5583 99.525 18.5583Z" fill="#69F0AE"/>
<path opacity="0.5" d="M237.148 65.624H71.011V73.7185H237.148V65.624Z" fill="#2E3C41"/>
<path opacity="0.5" d="M237.148 81.813H71.011V89.9075H237.148V81.813Z" fill="#2E3C41"/>
<path opacity="0.5" d="M237.148 98.002H71.011V106.096H237.148V98.002Z" fill="#2E3C41"/>
<path opacity="0.5" d="M237.148 114.191H128.278V122.285H237.148V114.191Z" fill="#2E3C41"/>
<path opacity="0.5" d="M158.485 130.38H71.011V138.474H158.485V130.38Z" fill="#2E3C41"/>
<path opacity="0.5" d="M185.545 146.569H118.209V154.663H185.545V146.569Z" fill="#2E3C41"/>
<path opacity="0.5" d="M454.889 122.285H259.174V254.004H454.889V122.285Z" fill="#2E3C41"/>
<path d="M478.173 134.795H282.458V266.514H478.173V134.795Z" fill="#EEEEEE"/>
<path opacity="0.5" d="M595.841 256.315C596.247 255.708 596.469 254.959 596.47 254.188C596.47 254.188 596.47 254.144 596.47 254.129C596.47 254.115 596.508 253.975 596.527 253.901V253.806C596.53 253.735 596.53 253.663 596.527 253.592C596.527 253.592 596.527 253.533 596.527 253.504C596.534 253.416 596.534 253.327 596.527 253.239C596.156 250.296 581.197 231.119 577.459 207.726C577.045 205.179 576.428 202.683 575.615 200.272C575.73 199.065 575.662 197.845 575.414 196.666C574.784 193.671 573.526 190.632 574.155 187.644C574.243 187.254 574.359 186.872 574.501 186.504C575.285 185.155 576.006 183.758 576.66 182.317C576.903 181.847 577.114 181.355 577.289 180.845C579.586 173.766 572.475 166.459 573.784 159.071C574.35 155.87 576.471 153.074 576.414 149.814C576.345 146.083 573.412 143.191 570.367 141.808C567.321 140.424 563.966 140.027 560.977 138.482C554.426 135.089 550.839 126.899 544.861 122.344C537.265 116.568 527.353 117.598 518.247 119.092C517.948 119.143 517.663 119.28 517.42 119.491C517.176 119.701 516.98 119.979 516.85 120.298H516.762C516.693 120.534 516.611 120.762 516.523 120.99C515.264 123.499 513.144 125.405 511.048 127.164C508.493 129.269 505.756 131.344 504.195 134.464C503.962 134.927 503.767 135.369 503.597 135.796C500.199 142.882 504.283 145.943 509.261 147.643C509.112 148.657 509.036 149.683 509.034 150.712C509.034 161.014 516.403 169.424 525.484 169.424C526.202 169.423 526.919 169.369 527.63 169.263L528.159 169.667H528.278C529.965 171.088 531.425 172.868 532.054 174.988L526.781 179.697C526.781 179.697 526.995 180.345 527.309 181.375L506.58 192.545C498.726 192.972 486.014 164.045 486.014 164.045C486.014 164.045 484.126 147.459 477.411 144.479C475.385 143.581 474.58 145.458 474.441 148.519C471.439 152.198 476.48 172.861 476.48 172.861L492.559 206.041C494.057 209.441 494.447 211.567 501.533 212.848C507.367 213.893 525.541 206.343 531.865 203.605L532.161 206.549C531.426 208.792 531.1 211.191 531.205 213.591C531.205 219.014 533.275 226.903 543.382 233.187C543.382 233.187 553.816 248.956 552.658 263.843C552.658 263.843 553.161 264.461 553.967 265.27C553.854 269.465 553.337 274.638 551.531 276.654C551.412 276.786 551.323 276.951 551.274 277.134C551.224 277.316 551.215 277.511 551.248 277.699C551.21 277.919 551.231 278.148 551.31 278.353C551.389 278.558 551.522 278.728 551.689 278.84L538.517 305.809C538.026 306.545 537.529 307.281 537.019 308.016C534.575 311.661 531.86 315.047 528.908 318.135C526.711 320.423 524.427 322.925 523.974 323.86C523.275 325.331 521.52 330.078 522.262 334C523.223 338.755 523.617 343.644 523.433 348.526L521.727 383.413C521.155 387.307 520.367 391.154 519.367 394.929H519.109C519.109 394.929 512.753 403.862 502.659 405.967C492.565 408.071 492.936 414.061 495.926 414.9C498.915 415.739 535.188 414.047 535.188 414.047C535.188 414.047 536.56 410.919 536.183 408.064C547.762 406.762 563.803 404.554 563.803 404.554C563.803 404.554 565.999 398.38 562.809 395.687C561.608 394.608 560.716 393.127 560.254 391.441C560.065 390.499 559.857 389.425 559.656 388.299C559.605 387.747 559.605 387.408 559.605 387.408H559.498C558.938 384.119 558.491 380.594 558.749 378.747C559.687 373.854 562.116 345.567 556.132 337.488C553.413 333.808 553.784 329.629 554.993 326.141C562.173 320.644 572.217 308.819 578.025 301.666C578.352 301.982 578.655 302.299 578.938 302.615L579.126 302.829C579.126 302.829 598.893 291.386 598.975 271.187C599.006 266.002 597.928 260.89 595.841 256.315ZM532.526 398.807C532.491 398.07 532.514 397.331 532.595 396.599L531.966 396.518C532.331 393.31 533.225 389.719 535.226 387.239C538.662 379.961 541.092 372.093 542.425 363.927L546.056 379.991C546.056 379.991 546.421 383.317 546.522 386.834H546.459C546.459 386.834 541.393 395.29 532.526 398.807Z" fill="url(#paint2_linear)"/>
<path d="M548.939 190.75C548.939 190.75 540.059 194.488 535.094 200.721C535.094 200.721 510.935 211.935 504.182 210.692C497.43 209.448 497.077 207.366 495.655 204.069L480.376 171.691C480.376 171.691 473.982 144.685 480.376 147.592C486.769 150.498 488.557 166.724 488.557 166.724C488.557 166.724 500.639 194.974 508.097 194.562L528.329 183.288C528.329 183.288 532.948 175.392 535.081 175.812C537.215 176.231 548.939 190.75 548.939 190.75Z" fill="#FDB797"/>
<g opacity="0.05">
<path opacity="0.05" d="M548.939 190.75C548.939 190.75 540.059 194.488 535.094 200.721C535.094 200.721 510.935 211.935 504.182 210.692C497.43 209.448 497.077 207.366 495.655 204.069L480.376 171.691C480.376 171.691 473.982 144.685 480.376 147.592C486.769 150.498 488.557 166.724 488.557 166.724C488.557 166.724 500.639 194.974 508.097 194.562L528.329 183.288C528.329 183.288 532.948 175.392 535.081 175.812C537.215 176.231 548.939 190.75 548.939 190.75Z" fill="black"/>
</g>
<path d="M534.351 175.436L527.265 181.941C527.265 181.941 530.808 192.781 529.921 196.578C529.034 200.375 544.093 190.617 544.093 190.617L537.894 174.355L534.351 175.436Z" fill="#F9E743"/>
<g opacity="0.05">
<path opacity="0.05" d="M534.351 175.436L527.265 181.941C527.265 181.941 530.808 192.781 529.921 196.578C529.034 200.375 544.093 190.617 544.093 190.617L537.894 174.355L534.351 175.436Z" fill="black"/>
</g>
<path d="M522.117 168.196C522.117 168.196 537.926 174.222 530.645 184.811L553.382 171.934C553.382 171.934 543.791 172.765 537.75 155.745L522.117 168.196Z" fill="#FDB797"/>
<path d="M551.959 276.632L532.419 317.759L545.572 377.555C545.572 377.555 546.994 390.852 544.861 392.096H559.782C559.782 392.096 556.906 380.322 557.648 376.312C558.536 371.536 560.845 343.934 555.131 336.016C549.417 328.098 557.975 317.737 557.975 317.737L575.03 286.161L551.959 276.632Z" fill="#FDB797"/>
<g opacity="0.05">
<path opacity="0.05" d="M551.959 276.632L532.419 317.759L545.572 377.555C545.572 377.555 546.994 390.852 544.861 392.096H559.782C559.782 392.096 557.12 380.256 557.648 376.312C558.177 372.368 560.845 343.934 555.131 336.016C549.417 328.098 557.975 317.737 557.975 317.737L575.03 286.161L551.959 276.632Z" fill="black"/>
</g>
<path d="M545.949 384.266C545.949 384.266 540.537 393.59 531.098 396.548C521.658 399.506 522.426 405.275 525.314 405.834C528.203 406.394 562.444 401.544 562.444 401.544C562.444 401.544 564.527 395.518 561.5 392.883C558.473 390.249 558.454 384.789 558.454 384.789L545.949 384.266Z" fill="#EEF7FC"/>
<g opacity="0.1">
<path opacity="0.1" d="M553.029 260.009C553.029 260.009 553.872 273.519 550.795 277.066C550.687 277.184 550.605 277.33 550.555 277.492C550.505 277.654 550.488 277.827 550.507 277.998C550.525 278.169 550.578 278.333 550.661 278.475C550.744 278.617 550.855 278.735 550.984 278.818L560.134 284.52L568.315 266.242L553.029 260.009Z" fill="black"/>
</g>
<path d="M553.029 259.597C553.029 259.597 553.872 273.107 550.795 276.654C550.687 276.772 550.605 276.918 550.555 277.08C550.505 277.242 550.488 277.415 550.507 277.586C550.525 277.757 550.578 277.921 550.661 278.063C550.744 278.205 550.855 278.323 550.984 278.406L560.134 284.108L568.315 265.83L553.029 259.597Z" fill="#E23553"/>
<g opacity="0.1">
<path opacity="0.1" d="M553.029 260.333C553.029 260.333 553.872 273.843 550.795 277.39C550.687 277.508 550.605 277.653 550.555 277.815C550.505 277.978 550.488 278.151 550.507 278.322C550.525 278.493 550.578 278.656 550.661 278.799C550.744 278.941 550.855 279.059 550.984 279.141L560.134 284.844L568.315 266.566L553.029 260.333Z" fill="black"/>
</g>
<path d="M553.381 286.183C553.381 286.183 548.102 290.304 537.019 307.266C534.702 310.818 532.123 314.124 529.31 317.148C527.227 319.356 525.056 321.829 524.622 322.741C523.955 324.147 522.287 328.819 522.999 332.646C523.912 337.295 524.287 342.067 524.112 346.833L522.495 380.911C522.495 380.911 520.362 396.283 517.524 397.946L532.092 400.889C532.092 400.889 531.028 390.087 535.289 384.701C535.289 384.701 545.238 364.759 542.752 342.322C542.752 342.322 541.689 332.351 551.28 326.95C560.87 321.549 580.417 295.374 580.417 295.374L553.381 286.183Z" fill="#FDB797"/>
<path d="M519.984 392.125C519.984 392.125 513.943 400.853 504.352 402.928C494.762 405.003 495.114 410.824 497.958 411.655C500.803 412.487 535.264 410.824 535.264 410.824C535.264 410.824 537.781 405.01 534.911 402.096C532.042 399.182 532.778 393.788 532.778 393.788L519.984 392.125Z" fill="#EEF7FC"/>
<g opacity="0.1">
<path opacity="0.1" d="M562.267 264.167C562.267 264.167 557.931 281.194 552.437 286.154C552.336 286.243 552.256 286.363 552.208 286.5C552.16 286.638 552.144 286.788 552.163 286.935C552.181 287.082 552.234 287.221 552.314 287.336C552.395 287.451 552.5 287.538 552.62 287.589C557.164 289.524 571.764 296.044 576.836 301.975L577.012 302.181C577.012 302.181 607.389 284.108 591.046 253.364L562.267 264.167Z" fill="black"/>
</g>
<path d="M562.267 263.754C562.267 263.754 557.931 280.782 552.437 285.742C552.336 285.831 552.256 285.951 552.208 286.088C552.16 286.226 552.144 286.376 552.163 286.523C552.181 286.67 552.234 286.809 552.314 286.924C552.395 287.039 552.5 287.126 552.62 287.177C557.164 289.112 571.764 295.632 576.836 301.563L577.012 301.769C577.012 301.769 607.389 283.696 591.046 252.952L562.267 263.754Z" fill="#E23553"/>
<g opacity="0.1">
<path opacity="0.1" d="M537.322 179.322C535.064 181.097 532.596 182.476 529.996 183.413L532.438 208.823C532.438 208.823 526.73 223.761 543.055 234.195C543.055 234.195 552.966 249.597 551.865 264.137C551.865 264.137 557.183 270.804 560.738 269.148C564.294 267.493 561.091 269.98 561.802 269.568C562.513 269.156 563.929 272.901 574.948 269.605C585.967 266.308 593.827 257.617 593.456 254.703C593.085 251.789 578.938 233.054 575.432 210.191C571.927 187.328 551.003 171.066 551.003 171.066C551.003 171.066 550.311 171.514 549.115 172.11C545.025 174.14 541.081 176.552 537.322 179.322Z" fill="black"/>
</g>
<g opacity="0.1">
<path opacity="0.1" d="M552.161 286.309C552.148 286.487 552.186 286.666 552.269 286.816C552.352 286.967 552.476 287.081 552.62 287.14C556.534 288.811 567.912 293.881 574.23 299.046C568.762 293.881 557.126 288.516 552.161 286.309Z" fill="black"/>
<path opacity="0.1" d="M591.045 252.952L590.416 253.202C604.38 281.746 578.082 298.987 575.785 300.422C576.181 300.805 576.54 301.158 576.867 301.563L577.043 301.769C577.043 301.769 607.389 283.696 591.045 252.952Z" fill="black"/>
</g>
<path d="M575.055 268.736C564.042 272.062 562.62 268.324 561.909 268.736C561.197 269.148 564.426 266.661 560.845 268.324C557.264 269.987 551.966 263.335 551.966 263.335C552.016 262.599 552.041 261.915 552.041 261.201C552.079 247.308 543.055 233.422 543.055 233.422C526.693 223.039 532.394 208.079 532.394 208.079L531.727 201.265L529.896 182.677C532.492 181.735 534.956 180.351 537.208 178.571C540.961 175.794 544.899 173.373 548.983 171.33C550.185 170.727 550.871 170.278 550.871 170.278C550.871 170.278 571.833 186.467 575.414 209.33C578.994 232.193 593.179 250.877 593.531 253.783C593.884 256.69 586.068 265.41 575.055 268.736Z" fill="#F9E743"/>
<g opacity="0.1">
<path opacity="0.1" d="M538.102 156.15L522.47 168.615C524.624 169.489 526.674 170.684 528.568 172.169C533.892 171.294 537.152 166.834 539.348 161.345C538.492 159.741 538.87 158.306 538.102 156.15Z" fill="black"/>
</g>
<path d="M526.026 171.941C534.659 171.941 541.657 163.758 541.657 153.662C541.657 143.567 534.659 135.384 526.026 135.384C517.392 135.384 510.393 143.567 510.393 153.662C510.393 163.758 517.392 171.941 526.026 171.941Z" fill="#FDB797"/>
<g opacity="0.1">
<path opacity="0.1" d="M577.541 266.661C566.528 269.987 565.105 266.249 564.394 266.661C563.683 267.073 566.912 264.586 563.331 266.249C559.75 267.912 554.451 261.26 554.451 261.26C554.502 260.524 554.527 259.84 554.527 259.126C554.571 245.255 545.565 231.347 545.565 231.347C529.203 220.964 534.905 206.004 534.905 206.004L534.244 199.183L532.514 181.588C531.678 182.029 530.813 182.391 529.927 182.67L531.727 201.265L532.4 208.079C532.4 208.079 526.737 223.039 543.061 233.422C543.061 233.422 552.066 247.33 552.022 261.201C552.022 261.937 552.022 262.621 551.947 263.335C551.947 263.335 557.277 269.958 560.826 268.324C564.375 266.691 561.179 269.156 561.89 268.736C562.601 268.317 564.023 272.062 575.036 268.736C580.032 267.225 584.714 264.544 588.799 260.855C585.335 263.48 581.534 265.44 577.541 266.661Z" fill="black"/>
</g>
<path d="M548.051 194.37C548.051 194.37 539.172 198.108 534.206 204.341C534.206 204.341 510.047 215.556 503.295 214.312C496.542 213.068 496.19 210.986 494.768 207.689L479.488 175.311C479.488 175.311 473.094 148.305 479.488 151.212C485.882 154.119 487.669 170.344 487.669 170.344C487.669 170.344 499.752 198.594 507.209 198.182L527.448 186.894C527.448 186.894 532.067 178.998 534.2 179.418C536.333 179.837 548.051 194.37 548.051 194.37Z" fill="#FDB797"/>
<g opacity="0.1">
<path opacity="0.1" d="M536.057 179.16C536.057 179.16 528.688 178.373 526.554 189.175C524.421 199.977 542.916 206.622 542.916 206.622L552.865 190.433L536.057 179.16Z" fill="black"/>
</g>
<path d="M536.415 179.16C536.415 179.16 529.046 178.373 526.913 189.175C524.779 199.977 543.275 206.622 543.275 206.622L553.224 190.433L536.415 179.16Z" fill="#F9E743"/>
<g opacity="0.1">
<path opacity="0.1" d="M533.407 181.08C532.292 181.738 531.124 182.265 529.921 182.655L529.984 183.281C531.158 182.619 532.3 181.884 533.407 181.08Z" fill="black"/>
<path opacity="0.1" d="M593.531 253.783C593.179 250.84 578.963 232.179 575.414 209.33C571.864 186.482 550.871 170.278 550.871 170.278C550.871 170.278 550.178 170.727 548.983 171.33C545.79 172.934 542.683 174.765 539.681 176.813C541.674 175.586 543.709 174.453 545.786 173.413C546.988 172.809 547.674 172.361 547.674 172.361C547.674 172.361 568.636 188.549 572.217 211.413C575.797 234.276 589.982 252.959 590.334 255.866C590.561 257.698 587.534 261.841 582.506 265.491C589.409 261.481 593.802 255.976 593.531 253.783Z" fill="black"/>
</g>
<path opacity="0.1" d="M540.638 179.329C540.638 179.329 549.826 184.649 551.557 194.878" stroke="black" stroke-miterlimit="10"/>
<g opacity="0.1">
<path opacity="0.1" d="M518.172 152.632C519.638 153.015 521.274 153.552 521.998 155.09C522.52 156.209 522.426 157.614 522.936 158.769C524.245 161.654 528.083 160.66 530.487 162.353C534.892 165.458 532.016 175.142 536.403 178.262C537.227 178.851 538.203 179.086 539.052 179.624C542.759 181.993 542.236 188.263 541.569 193.141C540.902 198.02 541.695 204.694 545.88 205.386C548.183 205.761 550.77 203.981 552.708 205.474C553.721 206.254 554.181 207.682 555.03 208.72C555.614 209.4 556.355 209.867 557.162 210.061C557.969 210.256 558.808 210.171 559.574 209.816C560.996 209.124 562.022 207.542 563.501 207.034C565.879 206.218 568.535 208.469 570.826 207.432C573.117 206.394 573.639 202.524 573.047 199.602C572.456 196.681 571.248 193.715 571.877 190.772C572.399 188.344 574.098 186.489 574.841 184.149C577.018 177.239 570.266 170.102 571.512 162.883C572.053 159.755 574.067 156.996 574.029 153.839C573.966 150.16 571.178 147.371 568.277 146.017C565.376 144.663 562.192 144.28 559.354 142.772C553.13 139.46 549.725 131.454 544.036 127.01C541.488 125.065 538.616 123.776 535.61 123.227C531.73 122.497 527.762 122.743 523.971 123.948C520.179 125.154 516.651 127.291 513.622 130.218C513.062 130.748 512.489 131.248 511.91 131.734C509.481 133.787 506.876 135.81 505.397 138.857C499.997 149.851 512.401 151.109 518.172 152.632Z" fill="black"/>
</g>
<path d="M518.612 151.595C520.079 151.977 521.715 152.514 522.438 154.052C522.961 155.171 522.866 156.576 523.376 157.732C524.685 160.616 528.524 159.623 530.928 161.315C535.333 164.421 532.457 174.105 536.843 177.225C537.668 177.813 538.643 178.049 539.493 178.586C543.199 180.955 542.677 187.225 542.01 192.104C541.343 196.983 542.136 203.657 546.321 204.348C548.624 204.724 551.21 202.943 553.149 204.437C554.162 205.217 554.621 206.644 555.471 207.682C556.054 208.363 556.795 208.829 557.603 209.024C558.41 209.219 559.248 209.133 560.014 208.778C561.437 208.087 562.462 206.505 563.941 205.997C566.32 205.18 568.976 207.432 571.266 206.394C573.557 205.357 574.079 201.486 573.488 198.565C572.896 195.643 571.688 192.678 572.317 189.734C572.84 187.306 574.539 185.452 575.281 183.112C577.459 176.202 570.706 169.064 571.952 161.845C572.494 158.718 574.507 155.958 574.47 152.801C574.407 149.122 571.619 146.333 568.718 144.979C565.817 143.625 562.632 143.243 559.794 141.734C553.57 138.423 550.166 130.417 544.477 125.972C542.165 124.198 539.578 122.973 536.862 122.366C532.863 121.469 528.744 121.616 524.8 122.797C520.855 123.977 517.182 126.162 514.044 129.195C513.49 129.718 512.917 130.218 512.351 130.667C509.922 132.72 507.316 134.743 505.837 137.79C500.438 148.813 512.848 150.079 518.612 151.595Z" fill="#2E3C41"/>
<path d="M391.958 266.514H282.458V242.385C309.21 227.764 350.373 219.551 391.958 266.514Z" fill="#2E3C41"/>
<g opacity="0.1">
<path opacity="0.1" d="M476.914 263.063V266.514H340.355V265.778C340.355 265.778 407.552 189.271 476.914 263.063Z" fill="black"/>
</g>
<path d="M478.173 263.063V266.514H341.613V265.778C341.613 265.778 408.811 189.271 478.173 263.063Z" fill="#2E3C41"/>
<path d="M305.113 170.116C310.674 170.116 315.182 164.845 315.182 158.342C315.182 151.84 310.674 146.569 305.113 146.569C299.553 146.569 295.044 151.84 295.044 158.342C295.044 164.845 299.553 170.116 305.113 170.116Z" fill="#2E3C41"/>
<path d="M390.838 149.439C389.686 149.439 388.402 149.439 387.527 149.519C387.136 149.545 386.751 149.636 386.382 149.792L380.46 152.279C385.243 152.419 390.234 152.375 395.136 152.33L422.624 152.08C425.431 152.08 428.376 152.021 430.711 151.83C432.278 151.698 433.429 151.506 434.877 151.359C440.081 150.815 447.664 150.918 454.442 150.947C461.219 150.976 469.4 150.77 471.785 149.976H457.236C455.669 149.976 454.02 149.976 452.636 149.887C451.018 149.777 450.03 149.571 448.608 149.424C446.254 149.188 443.007 149.159 439.987 149.144C423.404 149.063 407.03 149.519 390.838 149.439Z" fill="#F4F4F4"/>
<path d="M407.124 163.7C406.872 163.7 406.595 163.7 406.407 163.7C406.321 163.705 406.236 163.724 406.155 163.758L404.896 164.296C405.935 164.296 407.011 164.296 408.074 164.296L414.028 164.244C414.657 164.244 415.286 164.244 415.777 164.193C416.117 164.193 416.369 164.119 416.677 164.09C417.803 163.972 419.446 163.994 420.919 164.001C422.18 164.051 423.443 163.979 424.694 163.788H421.548C421.208 163.788 420.849 163.788 420.554 163.788C420.258 163.788 419.987 163.722 419.679 163.685C419.169 163.633 418.464 163.626 417.791 163.626C414.204 163.626 410.655 163.722 407.124 163.7Z" fill="#F4F4F4"/>
<path d="M364.961 184.304C364.709 184.304 364.432 184.304 364.243 184.304C364.157 184.309 364.072 184.328 363.991 184.362L362.733 184.9C363.771 184.9 364.847 184.9 365.911 184.9L371.864 184.848C372.493 184.848 373.123 184.848 373.614 184.797C373.953 184.797 374.205 184.723 374.513 184.694C375.64 184.576 377.282 184.598 378.755 184.605C380.016 184.655 381.279 184.583 382.531 184.392H379.384C379.044 184.392 378.686 184.392 378.39 184.392C378.094 184.392 377.824 184.326 377.515 184.289C377.006 184.237 376.301 184.23 375.627 184.23C372.04 184.23 368.491 184.326 364.961 184.304Z" fill="#F4F4F4"/>
<path d="M341.305 259.987H336.572C336.572 259.987 335.094 199.47 341.305 180.794H342.488C342.488 180.794 338.347 249.265 341.305 259.987Z" fill="#2E3C41"/>
<path d="M338.051 177.681C338.051 177.681 334.206 190.132 335.981 195.665C335.981 195.665 338.643 184.252 341.745 182.523C344.848 180.794 348.101 195.665 348.101 195.665C348.101 195.665 349.876 186.327 346.623 178.74C346.623 178.74 353.13 182.891 356.383 190.845C356.383 190.845 356.975 185.694 349.285 174.936C349.285 174.936 356.087 177.011 360.524 181.853C360.524 181.853 362.003 178.049 352.834 171.823C352.834 171.823 354.017 167.327 361.115 169.402C361.115 169.402 361.115 163.516 349.876 164.56C349.876 164.56 349.876 160.756 357.27 161.448C357.27 161.448 357.27 156.606 348.693 158.335C348.693 158.335 350.468 155.222 351.651 154.531C350.171 154.371 348.694 154.864 347.51 155.914C347.51 155.914 347.806 149.689 343.369 147.268L342.777 155.914C342.777 155.914 337.806 149.063 338.932 150.38C339.228 150.726 340.115 154.877 339.82 156.952C339.82 156.952 334.785 152.11 328.58 157.297C328.58 157.297 336.27 157.989 337.454 161.102C337.454 161.102 330.946 159.718 329.468 160.756C329.468 160.756 334.502 162.831 334.2 164.215C334.2 164.215 325.327 164.215 324.131 168.019C324.131 168.019 333.3 169.402 333.892 170.44C333.892 170.44 323.244 179.432 322.652 181.853C322.652 181.853 333.596 174.244 335.37 174.244C337.145 174.244 327.385 185.282 327.976 188.079C328.001 188.056 336.012 176.989 338.051 177.681Z" fill="#2E3C41"/>
<path d="M399.673 257.72H403.285C403.285 257.72 404.418 211.486 399.673 197.218H398.767C398.767 197.218 401.939 249.516 399.673 257.72Z" fill="#2E3C41"/>
<path d="M402.159 194.841C402.159 194.841 405.098 204.356 403.738 208.58C403.738 208.58 401.706 199.86 399.333 198.543C396.961 197.225 394.475 208.58 394.475 208.58C394.475 208.58 393.122 201.449 395.608 195.636C392.427 197.837 389.842 201.043 388.15 204.886C388.15 204.886 387.697 200.919 393.575 192.729C393.575 192.729 388.377 194.311 384.991 198.013C384.991 198.013 383.859 195.106 390.869 190.352C390.869 190.352 389.963 186.916 384.545 188.505C384.545 188.505 384.545 184.017 393.128 184.826C393.128 184.826 393.128 181.919 387.465 182.449C387.465 182.449 387.465 178.77 394.016 180.072C394.016 180.072 392.663 177.696 391.756 177.166C392.881 177.049 394.003 177.427 394.903 178.225C394.903 178.225 394.676 173.472 398.05 171.603L398.503 178.225C398.503 178.225 402.278 172.993 401.441 174.002C400.9 175.595 400.668 177.309 400.762 179.02C400.762 179.02 404.601 175.341 409.346 179.285C409.346 179.285 403.468 179.815 402.568 182.192C402.568 182.192 407.539 181.132 408.666 181.927C408.666 181.927 404.827 183.509 405.054 184.569C405.054 184.569 411.831 184.569 412.738 187.475C412.738 187.475 405.733 188.535 405.28 189.322C405.28 189.322 413.417 196.195 413.864 198.042C413.864 198.042 405.507 192.229 404.148 192.229C402.788 192.229 410.245 200.684 409.811 202.796C409.843 202.766 403.745 194.326 402.159 194.841Z" fill="#2E3C41"/>
<path d="M442.925 248.684H445.166C445.166 248.684 445.864 220.052 442.925 211.214H442.365C442.365 211.214 444.323 243.629 442.925 248.684Z" fill="#2E3C41"/>
<path d="M444.467 209.742C444.467 209.742 446.286 215.629 445.449 218.249C445.449 218.249 444.19 212.848 442.718 212.031C441.245 211.214 439.71 218.249 439.71 218.249C439.71 218.249 438.873 213.834 440.408 210.228C438.439 211.59 436.838 213.575 435.789 215.953C435.789 215.953 435.512 213.495 439.15 208.425C437.198 209.06 435.384 210.177 433.832 211.7C433.832 211.7 433.133 209.897 437.469 206.953C437.469 206.953 436.909 204.827 433.549 205.806C433.549 205.806 433.549 203.024 438.866 203.517C438.866 203.517 438.866 201.714 435.367 202.045C435.367 202.045 435.367 199.757 439.427 200.574C439.052 199.884 438.579 199.274 438.029 198.771C438.729 198.696 439.427 198.929 439.987 199.426C439.987 199.426 439.848 196.482 441.944 195.334L442.221 199.426C442.221 199.426 444.574 196.188 444.039 196.806C443.704 197.792 443.56 198.852 443.618 199.911C444.395 199.249 445.338 198.905 446.3 198.934C447.262 198.964 448.188 199.364 448.935 200.073C448.935 200.073 445.298 200.397 444.738 201.876C444.738 201.876 447.815 201.221 448.514 201.714C448.514 201.714 446.135 202.693 446.273 203.348C446.273 203.348 450.471 203.348 451.031 205.151C451.031 205.151 446.695 205.806 446.412 206.299C446.412 206.299 451.446 210.552 451.729 211.7C451.729 211.7 446.55 208.101 445.713 208.101C444.876 208.101 449.489 213.341 449.212 214.643C449.225 214.651 445.443 209.411 444.467 209.742Z" fill="#2E3C41"/>
<path d="M361.116 216.306L360.644 213.363C360.643 213.146 360.605 212.932 360.531 212.734C360.457 212.535 360.35 212.356 360.216 212.207L358.032 210.956C357.871 210.735 357.739 210.487 357.642 210.221L357.679 210.154C357.8 209.98 357.886 209.776 357.931 209.558C357.935 209.502 357.935 209.445 357.931 209.389H357.963C358.164 209.42 358.369 209.362 358.535 209.226C358.702 209.09 358.819 208.885 358.863 208.653V208.587C358.824 208.786 358.731 208.965 358.599 209.097C358.466 209.23 358.3 209.309 358.126 209.323C358.43 209.085 358.679 208.763 358.852 208.386C359.024 208.008 359.114 207.587 359.114 207.159C359.114 207.159 359.114 207.086 359.114 207.049C359.211 206.98 359.294 206.888 359.358 206.779C359.422 206.67 359.465 206.546 359.486 206.416V206.35C359.459 206.473 359.411 206.589 359.345 206.69C359.279 206.791 359.196 206.876 359.102 206.939C359.087 206.687 359.04 206.439 358.963 206.203H359.02C359.235 206.203 359.442 206.103 359.594 205.925C359.746 205.747 359.832 205.505 359.832 205.254C359.832 205.254 359.832 205.209 359.832 205.187C359.817 205.426 359.727 205.65 359.577 205.814C359.428 205.977 359.231 206.069 359.026 206.07H358.926V206.026C359.167 205.941 359.383 205.778 359.548 205.555C359.712 205.332 359.82 205.059 359.857 204.768C359.857 204.768 359.857 204.724 359.857 204.702C359.846 204.886 359.789 205.063 359.693 205.209C359.704 204.974 359.639 204.742 359.511 204.559C359.384 204.376 359.202 204.255 359.003 204.22C358.803 204.185 358.599 204.239 358.432 204.37C358.264 204.501 358.144 204.701 358.095 204.93L357.95 204.834C357.995 204.645 358.09 204.476 358.221 204.352C358.352 204.228 358.512 204.155 358.68 204.142H358.623C358.453 204.141 358.287 204.202 358.148 204.317C358.009 204.431 357.905 204.594 357.849 204.783C357.363 204.518 356.811 204.468 356.296 204.641C355.78 204.814 355.335 205.199 355.043 205.724C354.873 205.872 354.653 206.085 354.659 206.269C354.586 206.354 354.521 206.448 354.464 206.549C354.224 207.163 354.137 207.844 354.212 208.513C354.247 208.846 354.212 209.184 354.111 209.498C354.011 209.812 353.847 210.092 353.633 210.316C353.727 210.362 353.827 210.386 353.929 210.386C354.03 210.386 354.131 210.362 354.225 210.316C354.412 210.224 354.587 210.103 354.747 209.956C354.896 209.85 355.023 209.707 355.118 209.536V209.499C355.223 209.581 355.335 209.65 355.452 209.705C355.496 210.147 355.508 210.655 355.338 210.824L355.37 210.743C354.964 211.1 354.46 211.268 353.954 211.214C353.649 211.234 353.353 211.346 353.096 211.54C352.839 211.733 352.63 212.001 352.488 212.318L351.802 215.666V215.725V215.784C351.812 215.829 351.833 215.87 351.862 215.902C351.891 215.935 351.926 215.957 351.965 215.968L352.179 216.034C352.212 216.606 352.163 217.18 352.035 217.734C351.891 218.558 351.809 219.395 351.789 220.236C351.84 220.655 351.928 222.841 351.972 223.878C351.895 224.232 351.834 224.591 351.789 224.953L350.776 232.061C350.776 232.061 350.021 237.749 350.059 239.471L349.926 240.464C349.926 240.464 347.869 243.481 348.473 243.908C349.077 244.335 350.008 244.519 350.896 242.915C351.016 242.537 351.21 242.197 351.462 241.921C351.563 241.82 351.641 241.691 351.69 241.546C351.74 241.401 351.758 241.245 351.745 241.09L351.682 240.354L351.789 240.398H351.852C351.852 240.398 352.865 236.506 352.752 233.775C352.752 233.775 354.64 225.961 356.056 224.732V224.68L356.188 224.607L356.49 232.179L356.182 240.523L356.113 241.024C356.113 241.024 354.055 244.041 354.659 244.468C355.263 244.894 356.194 245.078 357.082 243.474C357.202 243.096 357.396 242.756 357.648 242.481C357.749 242.379 357.827 242.25 357.876 242.105C357.926 241.961 357.945 241.804 357.931 241.649L357.837 240.545C358.189 239.14 359.095 235.093 358.724 232.745L359.353 227.756C359.983 226.925 359.901 224.813 359.901 224.813C360.398 223.599 360.53 218.838 360.53 218.838L360.656 216.483C360.75 216.473 360.845 216.473 360.939 216.483H361.002H361.04V216.439C361.058 216.42 361.073 216.398 361.084 216.372H361.122V216.314L361.116 216.306ZM359.353 221.089C359.297 220.927 359.234 220.765 359.165 220.604H359.114V220.545C359.113 220.525 359.113 220.505 359.114 220.486V220.427C359.144 220.348 359.169 220.267 359.19 220.184C359.271 220.032 359.313 219.856 359.309 219.676C359.384 220.142 359.398 220.618 359.353 221.089ZM359.165 219.073L359.039 217.498L359.077 217.373L359.246 219.375L359.165 219.073ZM353.199 219.286C353.156 219.344 353.123 219.412 353.104 219.486C353.084 219.559 353.078 219.637 353.086 219.713C353.086 219.713 353.086 219.713 353.086 219.765C353.086 219.924 353.105 220.082 353.142 220.236L352.947 221.222V219.338C353.076 219.139 353.19 218.927 353.287 218.705C353.307 218.905 353.276 219.107 353.199 219.286Z" fill="url(#paint3_linear)"/>
<path d="M354.47 207.13C354.238 207.721 354.153 208.376 354.225 209.021C354.258 209.342 354.224 209.667 354.126 209.97C354.029 210.272 353.87 210.542 353.664 210.758C353.755 210.802 353.853 210.825 353.951 210.825C354.049 210.825 354.146 210.802 354.237 210.758C354.417 210.669 354.587 210.553 354.741 210.412C354.885 210.31 355.007 210.172 355.099 210.007C355.186 209.753 355.215 209.476 355.181 209.205C355.182 208.724 355.218 208.244 355.288 207.77C355.326 207.476 355.565 206.674 355.288 206.519C355.011 206.365 354.59 206.909 354.47 207.13Z" fill="#72351C"/>
<path d="M350.31 238.411L350.115 239.883C350.115 239.883 348.133 242.827 348.718 243.202C349.303 243.577 350.197 243.791 351.053 242.245C351.167 241.882 351.353 241.554 351.594 241.289C351.691 241.19 351.766 241.066 351.813 240.926C351.86 240.787 351.878 240.636 351.865 240.487L351.67 238.242L350.31 238.411Z" fill="#333333"/>
<path d="M356.276 238.993L356.081 240.464C356.081 240.464 354.099 243.408 354.684 243.783C355.269 244.158 356.163 244.372 357.019 242.827C357.133 242.463 357.319 242.135 357.56 241.87C357.657 241.771 357.732 241.647 357.779 241.508C357.826 241.368 357.844 241.217 357.83 241.068L357.635 238.823L356.276 238.993Z" fill="#333333"/>
<path d="M353.186 221.398C353.186 221.398 352.255 222.186 351.928 224.923L350.952 231.774C350.952 231.774 350.128 237.985 350.279 239.177L351.928 239.839C351.928 239.839 352.903 236.086 352.796 233.474C352.796 233.474 354.778 225.217 356.169 224.644L356.465 231.936L356.15 240.141L357.56 240.472C357.56 240.472 358.988 235.247 358.535 232.48L359.272 226.594C359.272 226.594 360.115 223.451 358.944 220.707L353.186 221.398Z" fill="#4D8AF0"/>
<g opacity="0.1">
<path opacity="0.1" d="M356.024 224.754V224.629C354.634 225.21 352.651 233.459 352.651 233.459C352.618 235.594 352.332 237.714 351.802 239.758L351.978 239.832C351.978 239.832 352.953 236.079 352.846 233.466C352.84 233.474 354.653 225.968 356.024 224.754Z" fill="black"/>
<path opacity="0.1" d="M359.001 220.743H358.812C359.489 222.588 359.6 224.649 359.127 226.579L358.391 232.466C358.825 235.085 357.56 239.905 357.428 240.413L357.61 240.457C357.61 240.457 359.039 235.233 358.586 232.466L359.322 226.579C359.322 226.579 360.172 223.451 359.001 220.743Z" fill="black"/>
</g>
<path d="M351.921 216.034C351.92 216.09 351.936 216.145 351.966 216.19C351.996 216.234 352.038 216.265 352.085 216.277C352.545 216.412 352.975 216.663 353.344 217.013C354.036 217.645 352.607 215.747 352.607 215.747L352.129 215.872L351.934 216.078L351.921 216.034Z" fill="#F55F44"/>
<path opacity="0.1" d="M351.921 216.034C351.92 216.09 351.936 216.145 351.966 216.19C351.996 216.234 352.038 216.265 352.085 216.277C352.545 216.412 352.975 216.663 353.344 217.013C354.036 217.645 352.607 215.747 352.607 215.747L352.129 215.872L351.934 216.078L351.921 216.034Z" fill="black"/>
<path d="M358.73 217.712C359.312 217.228 359.986 216.918 360.694 216.807C360.742 216.807 360.789 216.784 360.823 216.744C360.857 216.704 360.876 216.65 360.876 216.593C360.876 216.593 359.228 215.835 358.73 217.712Z" fill="#F55F44"/>
<path opacity="0.1" d="M360.876 216.586C360.876 216.586 359.228 215.85 358.73 217.704C358.73 217.704 359.945 216.615 360.788 216.792" fill="black"/>
<path d="M356.817 210.228C358.002 210.228 358.963 209.105 358.963 207.719C358.963 206.333 358.002 205.209 356.817 205.209C355.632 205.209 354.671 206.333 354.671 207.719C354.671 209.105 355.632 210.228 356.817 210.228Z" fill="#72351C"/>
<path d="M355.338 209.477C355.338 209.477 355.641 210.949 355.338 211.251C355.036 211.553 354.426 212.112 354.885 212.546C355.345 212.98 356.987 213.716 357.535 213.355C358.082 212.995 358.705 213.105 358.554 212.369C358.403 211.634 357.207 211.788 357.189 208.131L355.338 209.477Z" fill="#FDB797"/>
<path opacity="0.1" d="M352.299 215.592C352.344 216.39 352.299 217.192 352.167 217.977C352.028 218.769 351.948 219.574 351.928 220.383C351.991 220.913 352.123 224.415 352.123 224.415C352.123 224.415 351.884 227.484 353.161 227.204C354.439 226.925 352.966 223.702 352.966 223.702L353.029 219.515C353.375 218.964 353.592 218.317 353.658 217.638C353.753 216.63 352.299 215.592 352.299 215.592Z" fill="black"/>
<path d="M352.28 215.592C352.325 216.39 352.281 217.192 352.148 217.977C352.009 218.769 351.929 219.574 351.909 220.383C351.972 220.913 352.104 224.415 352.104 224.415C352.104 224.415 351.865 227.484 353.142 227.204C354.42 226.925 352.947 223.702 352.947 223.702L353.01 219.515C353.357 218.964 353.574 218.317 353.639 217.638C353.727 216.63 352.28 215.592 352.28 215.592Z" fill="#FDB797"/>
<path opacity="0.1" d="M360.455 215.821L360.279 219.095C360.279 219.095 360.172 223.687 359.693 224.85C359.693 224.85 359.825 228.073 358.542 227.992C357.258 227.911 358.756 224.467 358.756 224.467C358.756 224.467 359.442 220.883 359.089 219.75L358.756 215.821H360.455Z" fill="black"/>
<path d="M360.474 215.821L360.297 219.095C360.297 219.095 360.19 223.687 359.712 224.85C359.712 224.85 359.844 228.073 358.56 227.992C357.277 227.911 358.774 224.467 358.774 224.467C358.774 224.467 359.46 220.883 359.108 219.75L358.774 215.821H360.474Z" fill="#FDB797"/>
<path opacity="0.1" d="M356.314 212.649C356.314 212.649 357.352 213.208 357.919 211.545L360.027 212.752C360.156 212.896 360.26 213.07 360.33 213.262C360.4 213.454 360.436 213.661 360.436 213.87L360.889 216.711C360.889 216.711 359.347 216.1 358.869 217.778L359.001 219.375C359.1 219.769 359.076 220.192 358.932 220.567C358.919 220.6 358.913 220.637 358.913 220.674C358.913 220.71 358.919 220.747 358.932 220.78C358.963 220.896 358.971 221.02 358.954 221.14C358.938 221.261 358.897 221.375 358.836 221.473C358.775 221.572 358.695 221.653 358.602 221.709C358.509 221.765 358.407 221.794 358.302 221.796C357.736 221.803 357.17 221.855 356.61 221.95C356.157 222.105 354.785 221.649 354.332 221.95C353.878 222.252 352.922 221.722 352.922 221.722L353.18 220.427C353.18 220.427 353.004 219.794 353.224 219.566C353.444 219.338 353.312 217.358 353.117 216.799C353.117 216.799 352.337 215.938 351.858 216.063L352.488 212.789C352.623 212.483 352.825 212.224 353.072 212.037C353.319 211.85 353.603 211.742 353.897 211.722C354.385 211.773 354.872 211.61 355.263 211.266C355.263 211.266 354.791 212.472 356.314 212.649Z" fill="black"/>
<path opacity="0.1" d="M356.421 212.59C356.704 212.678 357.459 212.774 357.912 211.442L360.021 212.649C360.15 212.793 360.253 212.967 360.324 213.159C360.394 213.351 360.43 213.558 360.43 213.767L360.883 216.608C360.883 216.608 359.341 215.997 358.863 217.675L358.995 219.272L359.083 219.588C359.121 219.723 359.131 219.867 359.112 220.008C359.094 220.148 359.047 220.282 358.976 220.398C358.946 220.437 358.926 220.486 358.918 220.538C358.911 220.589 358.915 220.643 358.932 220.692C358.963 220.808 358.971 220.931 358.954 221.052C358.938 221.172 358.897 221.286 358.836 221.385C358.775 221.484 358.695 221.564 358.602 221.62C358.509 221.676 358.407 221.706 358.303 221.707C357.736 221.715 357.17 221.767 356.61 221.862C356.157 222.016 354.785 221.56 354.332 221.862C353.878 222.164 352.922 221.634 352.922 221.634L353.18 220.339C353.18 220.339 353.004 219.706 353.224 219.478C353.444 219.25 353.312 217.27 353.117 216.711C353.117 216.711 352.337 215.85 351.858 215.975L352.488 212.7C352.623 212.395 352.825 212.136 353.072 211.949C353.319 211.762 353.603 211.653 353.897 211.633C354.385 211.685 354.872 211.522 355.263 211.177C355.263 211.177 354.753 212.266 356.094 212.502L356.421 212.59Z" fill="black"/>
<path d="M356.421 212.642C356.704 212.73 357.459 212.826 357.912 211.494L360.02 212.7C360.15 212.845 360.253 213.018 360.324 213.21C360.394 213.403 360.43 213.61 360.43 213.819L360.883 216.659C360.883 216.659 359.341 216.049 358.863 217.726L358.995 219.323C359.094 219.717 359.069 220.14 358.925 220.515C358.913 220.549 358.906 220.585 358.906 220.622C358.906 220.659 358.913 220.695 358.925 220.729C358.957 220.845 358.965 220.968 358.948 221.089C358.931 221.209 358.891 221.323 358.83 221.422C358.769 221.521 358.688 221.601 358.596 221.657C358.503 221.713 358.4 221.743 358.296 221.744C357.73 221.752 357.164 221.803 356.603 221.899C356.15 222.053 354.778 221.597 354.325 221.899C353.872 222.2 352.916 221.671 352.916 221.671L353.174 220.375C353.174 220.375 352.997 219.743 353.218 219.514C353.438 219.286 353.306 217.307 353.111 216.748C353.111 216.748 352.33 215.887 351.852 216.012L352.481 212.737C352.617 212.432 352.818 212.173 353.066 211.986C353.313 211.799 353.597 211.69 353.891 211.67C354.379 211.721 354.866 211.559 355.257 211.214C355.257 211.214 354.747 212.303 356.087 212.539L356.421 212.642Z" fill="#F55F44"/>
<path opacity="0.1" d="M357.22 208.263L355.376 209.61C355.423 209.853 355.459 210.098 355.483 210.346C355.693 210.444 355.918 210.494 356.144 210.493C356.594 210.456 357.019 210.231 357.34 209.86C357.256 209.333 357.216 208.799 357.22 208.263Z" fill="black"/>
<path d="M356.106 210.331C357.09 210.331 357.887 209.399 357.887 208.248C357.887 207.098 357.09 206.166 356.106 206.166C355.123 206.166 354.325 207.098 354.325 208.248C354.325 209.399 355.123 210.331 356.106 210.331Z" fill="#FDB797"/>
<path d="M358.73 206.652C359.161 206.652 359.511 206.243 359.511 205.739C359.511 205.235 359.161 204.827 358.73 204.827C358.299 204.827 357.95 205.235 357.95 205.739C357.95 206.243 358.299 206.652 358.73 206.652Z" fill="#72351C"/>
<path d="M358.881 206.703C358.684 206.704 358.494 206.617 358.349 206.46C358.204 206.303 358.115 206.087 358.101 205.857C358.101 205.857 358.101 205.901 358.101 205.923C358.101 206.165 358.183 206.397 358.33 206.568C358.476 206.739 358.674 206.836 358.881 206.836C359.088 206.836 359.287 206.739 359.433 206.568C359.58 206.397 359.662 206.165 359.662 205.923C359.662 205.923 359.662 205.879 359.662 205.857C359.647 206.087 359.559 206.303 359.414 206.46C359.269 206.617 359.079 206.704 358.881 206.703Z" fill="#72351C"/>
<path d="M358.435 207.572C358.241 207.528 358.069 207.401 357.952 207.216C357.835 207.03 357.783 206.8 357.805 206.571V206.63C357.768 206.868 357.813 207.114 357.93 207.313C358.047 207.512 358.228 207.649 358.431 207.693C358.635 207.737 358.845 207.684 359.016 207.547C359.186 207.41 359.303 207.199 359.341 206.961V206.895C359.293 207.122 359.172 207.319 359.003 207.445C358.835 207.571 358.631 207.616 358.435 207.572Z" fill="#72351C"/>
<path d="M357.83 209.779C357.637 209.736 357.464 209.609 357.348 209.423C357.231 209.238 357.179 209.007 357.201 208.778V208.837C357.164 209.075 357.209 209.321 357.326 209.52C357.443 209.72 357.624 209.857 357.827 209.901C358.031 209.944 358.241 209.892 358.412 209.755C358.582 209.617 358.699 209.406 358.737 209.168V209.102C358.689 209.329 358.568 209.526 358.399 209.652C358.231 209.778 358.027 209.824 357.83 209.779Z" fill="#72351C"/>
<path d="M358.881 206.218C358.683 206.218 358.492 206.13 358.347 205.971C358.202 205.813 358.114 205.596 358.101 205.364C358.101 205.364 358.101 205.408 358.101 205.43C358.101 205.672 358.183 205.904 358.33 206.075C358.476 206.247 358.674 206.343 358.881 206.343C359.088 206.343 359.287 206.247 359.433 206.075C359.58 205.904 359.662 205.672 359.662 205.43C359.662 205.43 359.662 205.386 359.662 205.364C359.649 205.596 359.561 205.813 359.416 205.971C359.271 206.13 359.08 206.218 358.881 206.218Z" fill="#72351C"/>
<path d="M357.793 205.725C357.794 205.492 357.871 205.27 358.008 205.102C358.144 204.933 358.331 204.833 358.529 204.819H358.472C358.265 204.819 358.067 204.916 357.921 205.087C357.774 205.258 357.692 205.49 357.692 205.732C357.692 205.974 357.774 206.206 357.921 206.377C358.067 206.548 358.265 206.644 358.472 206.644H358.529C358.329 206.631 358.14 206.528 358.003 206.357C357.866 206.186 357.791 205.959 357.793 205.725Z" fill="#72351C"/>
<path opacity="0.1" d="M358.579 214.334C358.661 214.785 358.661 215.252 358.579 215.703C358.579 215.703 358.472 216.895 358.642 217.101" fill="black"/>
<path opacity="0.1" d="M353.306 214.614C353.388 215.065 353.388 215.531 353.306 215.982C353.306 215.982 353.199 217.175 353.369 217.381" fill="black"/>
<path opacity="0.1" d="M353.262 219.507C353.431 219.578 353.615 219.578 353.784 219.507C353.989 219.434 354.208 219.434 354.413 219.507" fill="black"/>
<path opacity="0.1" d="M353.526 217.712C354.139 217.746 354.752 217.633 355.326 217.381C355.326 217.381 357.541 218.013 358.17 217.557" fill="black"/>
<path d="M352.859 228.647H352.337C352.104 228.647 351.915 228.867 351.915 229.14C351.915 229.412 352.104 229.633 352.337 229.633H352.859C353.092 229.633 353.281 229.412 353.281 229.14C353.281 228.867 353.092 228.647 352.859 228.647Z" fill="#FDB797"/>
<path d="M351.921 228.912L352.651 228.875L353.281 228.992H353.06L351.921 228.912Z" fill="#F0E4E4"/>
<path d="M356.843 224.783H357.573L358.202 224.857H357.982L356.843 224.783Z" fill="#F0E4E4"/>
<path d="M356.843 224.96H357.573L358.202 225.034H357.982L356.843 224.96Z" fill="#F0E4E4"/>
<path d="M356.843 225.144H357.573L358.202 225.218H357.982L356.843 225.144Z" fill="#F0E4E4"/>
<path d="M356.843 225.321H357.573L358.202 225.394H357.982L356.843 225.321Z" fill="#F0E4E4"/>
<path d="M351.921 229.596H352.651L353.281 229.684H353.06L351.921 229.596Z" fill="#F0E4E4"/>
<path d="M351.921 229.508H352.651L353.281 229.596H353.06L351.921 229.508Z" fill="#F0E4E4"/>
<path d="M351.921 229.419H352.651L353.281 229.508H353.06L351.921 229.419Z" fill="#F0E4E4"/>
<path d="M351.921 229.331H352.651L353.281 229.419H353.06L351.921 229.331Z" fill="#F0E4E4"/>
<path d="M351.921 228.779L352.651 228.742L353.281 228.86H353.06L351.921 228.779Z" fill="#F0E4E4"/>
<path d="M351.921 228.624L352.651 228.588L353.281 228.705H353.06L351.921 228.624Z" fill="#F0E4E4"/>
<path opacity="0.1" d="M356.408 206.917C356.338 207.694 356.425 208.48 356.66 209.213C356.777 209.568 356.829 209.948 356.812 210.328C356.796 210.708 356.712 211.08 356.566 211.42C356.662 211.446 356.763 211.445 356.859 211.417C356.955 211.389 357.045 211.334 357.119 211.258C357.276 211.098 357.411 210.912 357.522 210.706C357.639 210.538 357.723 210.342 357.768 210.132C357.787 209.802 357.744 209.47 357.642 209.161C357.52 208.597 357.431 208.024 357.377 207.446C357.34 207.093 357.377 206.078 357.038 205.975C356.698 205.872 356.471 206.622 356.408 206.917Z" fill="black"/>
<path d="M356.452 206.894C356.383 207.672 356.469 208.458 356.704 209.19C356.821 209.546 356.873 209.926 356.856 210.306C356.84 210.686 356.756 211.058 356.61 211.398C356.706 211.424 356.807 211.423 356.903 211.395C356.999 211.367 357.089 211.312 357.163 211.236C357.32 211.076 357.456 210.89 357.566 210.684C357.683 210.516 357.767 210.32 357.812 210.11C357.831 209.78 357.788 209.448 357.686 209.139C357.564 208.575 357.475 208.002 357.421 207.424C357.384 207.071 357.421 206.056 357.082 205.953C356.742 205.85 356.515 206.593 356.452 206.894Z" fill="#72351C"/>
<path opacity="0.1" d="M355.685 207.439C355.836 207.623 355.867 207.895 355.993 208.101C356.105 208.242 356.242 208.351 356.394 208.423C356.546 208.494 356.71 208.525 356.874 208.513C356.964 208.508 357.053 208.531 357.132 208.58C357.27 208.683 357.277 208.918 357.365 209.08C357.412 209.139 357.469 209.186 357.532 209.218C357.596 209.251 357.664 209.267 357.733 209.267C357.802 209.267 357.87 209.251 357.934 209.218C357.997 209.186 358.054 209.139 358.101 209.08C358.283 208.826 358.383 208.506 358.384 208.175C358.415 207.81 358.415 207.443 358.384 207.078C358.376 206.661 358.234 206.262 357.988 205.96C357.781 205.781 357.542 205.66 357.289 205.607C356.944 205.464 356.573 205.431 356.213 205.511C356.039 205.579 355.873 205.676 355.722 205.798C355.508 205.96 355.299 206.124 355.093 206.291C354.86 206.482 354.42 206.865 354.848 207.071C355.118 207.218 355.458 207.152 355.685 207.439Z" fill="black"/>
<path d="M355.729 207.41C355.88 207.594 355.911 207.866 356.037 208.072C356.149 208.212 356.286 208.322 356.438 208.393C356.59 208.464 356.754 208.495 356.918 208.484C357.008 208.478 357.097 208.501 357.176 208.55C357.314 208.653 357.321 208.889 357.409 209.051C357.456 209.11 357.513 209.157 357.576 209.189C357.64 209.221 357.708 209.238 357.777 209.238C357.846 209.238 357.914 209.221 357.978 209.189C358.041 209.157 358.098 209.11 358.145 209.051C358.327 208.797 358.427 208.477 358.428 208.145C358.459 207.781 358.459 207.414 358.428 207.049C358.42 206.632 358.278 206.233 358.032 205.931C357.825 205.752 357.586 205.631 357.333 205.577C356.988 205.435 356.617 205.402 356.257 205.482C356.083 205.55 355.918 205.646 355.766 205.769C355.552 205.931 355.343 206.095 355.137 206.262C354.904 206.453 354.464 206.836 354.892 207.042C355.162 207.189 355.521 207.13 355.729 207.41Z" fill="#72351C"/>
<path d="M356.886 224.783H357.617L358.246 224.857H358.038L356.886 224.783Z" fill="#F0E4E4"/>
<path d="M356.886 224.96H357.617L358.246 225.034H358.038L356.886 224.96Z" fill="#F0E4E4"/>
<path d="M356.886 225.144H357.617L358.246 225.218H358.038L356.886 225.144Z" fill="#F0E4E4"/>
<path d="M356.886 225.321H357.617L358.246 225.394H358.038L356.886 225.321Z" fill="#F0E4E4"/>
<path d="M356.572 235.085H357.302L357.931 235.159H357.711L356.572 235.085Z" fill="#F0E4E4"/>
<path d="M356.572 235.269H357.302L357.931 235.343H357.711L356.572 235.269Z" fill="#F0E4E4"/>
<path d="M356.572 235.446H357.302L357.931 235.52H357.711L356.572 235.446Z" fill="#F0E4E4"/>
<path d="M356.572 235.623H357.302L357.931 235.696H357.711L356.572 235.623Z" fill="#F0E4E4"/>
</g>
<defs>
<linearGradient id="paint0_linear" x1="282.458" y1="448.993" x2="282.458" y2="279.936" gradientUnits="userSpaceOnUse">
<stop stop-color="#808080" stop-opacity="0.25"/>
<stop offset="0.54" stop-color="#808080" stop-opacity="0.12"/>
<stop offset="1" stop-color="#808080" stop-opacity="0.1"/>
</linearGradient>
<linearGradient id="paint1_linear" x1="200585" y1="180450" x2="200585" y2="0" gradientUnits="userSpaceOnUse">
<stop stop-color="#808080" stop-opacity="0.25"/>
<stop offset="0.54" stop-color="#808080" stop-opacity="0.12"/>
<stop offset="1" stop-color="#808080" stop-opacity="0.1"/>
</linearGradient>
<linearGradient id="paint2_linear" x1="122975" y1="210848" x2="122975" y2="90814.2" gradientUnits="userSpaceOnUse">
<stop stop-color="#808080" stop-opacity="0.25"/>
<stop offset="0.54" stop-color="#808080" stop-opacity="0.12"/>
<stop offset="1" stop-color="#808080" stop-opacity="0.1"/>
</linearGradient>
<linearGradient id="paint3_linear" x1="9124.4" y1="19604.9" x2="9124.4" y2="17356.8" gradientUnits="userSpaceOnUse">
<stop stop-color="#808080" stop-opacity="0.25"/>
<stop offset="0.54" stop-color="#808080" stop-opacity="0.12"/>
<stop offset="1" stop-color="#808080" stop-opacity="0.1"/>
</linearGradient>
<clipPath id="clip0">
<rect width="599" height="449" fill="white"/>
</clipPath>
</defs>
</svg>
