<svg width="599" height="467" viewBox="0 0 599 467" fill="none" xmlns="http://www.w3.org/2000/svg">
<g clip-path="url(#clip0)">
<path d="M504.418 2.05649L3.56845 138.792L71.0493 385.968L571.898 249.233L504.418 2.05649Z" fill="#F5F5F5"/>
<path d="M507.166 0.973627L0.00445557 139.432L69.1371 392.659L576.298 254.201L507.166 0.973627Z" fill="url(#paint0_linear)"/>
<path d="M511.225 26.9972L10.3757 163.732L71.0028 385.804L571.852 249.069L511.225 26.9972Z" fill="white"/>
<path d="M19.1422 153.232C22.6114 152.292 24.662 148.718 23.7224 145.249C22.7829 141.78 19.2089 139.729 15.7398 140.669C12.2706 141.608 10.22 145.182 11.1595 148.651C12.0991 152.121 15.6731 154.171 19.1422 153.232Z" fill="#FF5252"/>
<path d="M39.432 148.693C42.9181 147.741 44.9726 144.144 44.0209 140.658C43.0692 137.172 39.4716 135.117 35.9855 136.069C32.4994 137.02 30.4448 140.618 31.3966 144.104C32.3483 147.59 35.9459 149.645 39.432 148.693Z" fill="#FFFF00"/>
<path d="M58.3745 143.52C61.8606 142.568 63.9152 138.971 62.9634 135.485C62.0117 131.998 58.4141 129.944 54.928 130.896C51.4419 131.847 49.3873 135.445 50.3391 138.931C51.2908 142.417 54.8884 144.472 58.3745 143.52Z" fill="#69F0AE"/>
<path d="M142.167 127.433L10.2924 163.436L70.9999 385.803L202.875 349.8L142.167 127.433Z" fill="#1D253C"/>
<path d="M130.294 205.299C125.271 186.898 105.492 176.269 86.1271 181.543C66.7622 186.816 55.1487 206.052 60.1444 224.46C64.0879 238.904 77.1132 248.556 91.9032 249.486L89.5615 240.9C87.8647 234.696 91.8286 228.159 98.3853 226.374C104.915 224.589 111.648 228.207 113.318 234.417L115.66 243.004C127.918 234.675 134.237 219.709 130.294 205.299Z" fill="url(#paint1_linear)"/>
<path d="M97.1799 221.135L96.7085 221.263C95.6742 221.546 95.0647 222.613 95.347 223.647L98.1822 234.032C98.4646 235.067 99.5319 235.676 100.566 235.394L101.038 235.265C102.072 234.983 102.681 233.915 102.399 232.881L99.5639 222.496C99.2815 221.462 98.2142 220.852 97.1799 221.135Z" fill="url(#paint2_linear)"/>
<path d="M97.4809 223.093C104.927 221.06 109.398 213.678 107.466 206.604C105.535 199.531 97.9337 195.444 90.4878 197.477C83.0418 199.51 78.5711 206.892 80.5022 213.966C82.4333 221.039 90.035 225.125 97.4809 223.093Z" fill="url(#paint3_linear)"/>
<path d="M98.3582 226.367C91.8286 228.152 87.8714 234.689 89.5344 240.893L91.8761 249.479C100.292 249.992 108.643 247.714 115.632 242.997L113.291 234.411C111.621 228.207 104.888 224.589 98.3582 226.367Z" fill="url(#paint4_linear)"/>
<path d="M80.2015 213.288C78.5872 211.613 77.479 209.517 77.0046 207.24C76.7814 206.093 76.7895 204.914 77.0284 203.77C77.2673 202.627 77.7323 201.543 78.396 200.582C79.9232 198.457 82.4686 197.188 84.9528 196.271C87.437 195.355 90.1113 194.778 92.5141 193.617C96.4708 191.705 99.5178 188.314 100.999 184.176C101.762 185.979 102.26 187.884 102.478 189.83C102.577 190.821 102.468 191.822 102.158 192.769C101.848 193.715 101.345 194.587 100.679 195.328C102.478 193.869 102.838 196.007 102.716 197.425C104.073 198.314 106.564 197.833 107.101 199.305C107.708 200.754 107.941 202.332 107.779 203.894C107.542 205.448 108.872 207.722 107.318 208.258" fill="url(#paint5_linear)"/>
<path d="M127.171 200.873C125.504 194.774 122.194 189.249 117.602 184.901C113.01 180.553 107.313 177.548 101.132 176.216C94.95 174.883 88.5211 175.273 82.5458 177.343C76.5705 179.413 71.278 183.083 67.2453 187.954C63.2127 192.825 60.5945 198.709 59.6763 204.966C58.7581 211.223 59.575 217.611 62.0381 223.436C64.5011 229.26 68.5158 234.296 73.6444 237.996C78.773 241.695 84.8188 243.916 91.1227 244.415L88.7809 235.829C87.9732 232.838 88.3822 229.648 89.9185 226.957C91.4548 224.266 93.9935 222.292 96.9803 221.467C99.9719 220.659 103.162 221.068 105.853 222.604C108.544 224.141 110.517 226.679 111.343 229.666L113.684 238.252C119.506 234.168 123.926 228.386 126.34 221.696C128.753 215.006 129.044 207.734 127.171 200.873Z" fill="#1D253C"/>
<path d="M95.7105 216.266L95.4485 216.337C94.4143 216.619 93.8047 217.687 94.0871 218.721L96.9223 229.106C97.2046 230.14 98.272 230.75 99.3062 230.467L99.5681 230.396C100.602 230.114 101.212 229.046 100.93 228.012L98.0944 217.627C97.8121 216.593 96.7447 215.983 95.7105 216.266Z" fill="white" stroke="white" stroke-miterlimit="10"/>
<path d="M96.1163 218.195C103.19 216.264 107.358 208.964 105.427 201.891C103.496 194.817 96.1966 190.648 89.1231 192.58C82.0496 194.511 77.8809 201.81 79.812 208.884C81.7431 215.957 89.0428 220.126 96.1163 218.195Z" fill="white" stroke="white" stroke-miterlimit="10"/>
<path d="M96.9871 221.467C94.0004 222.292 91.4616 224.266 89.9253 226.957C88.389 229.648 87.98 232.838 88.7878 235.829L91.1227 244.415C99.1301 245.036 107.105 242.858 113.684 238.252L111.343 229.666C110.517 226.681 108.545 224.143 105.855 222.607C103.166 221.071 99.9777 220.661 96.9871 221.467Z" fill="white" stroke="white" stroke-miterlimit="10"/>
<path d="M79.5092 208.17C77.9424 206.464 76.8639 204.368 76.3869 202.102C75.9218 199.818 76.3676 197.443 77.629 195.484C79.0612 193.387 81.4368 192.131 83.826 191.269C86.2153 190.407 88.7267 189.85 91.0005 188.717C92.8789 187.771 94.5506 186.461 95.9185 184.864C97.2865 183.266 98.3234 181.413 98.969 179.411C99.7215 181.219 100.222 183.121 100.456 185.065C100.563 186.035 100.472 187.016 100.188 187.949C99.9047 188.883 99.4345 189.749 98.8061 190.495C100.503 189.063 100.842 191.228 100.795 192.613C102.078 193.516 104.474 193.068 105.003 194.541C105.608 195.988 105.857 197.559 105.729 199.122C105.519 200.67 106.822 202.95 105.343 203.466" fill="white"/>
<path d="M79.5092 208.17C77.9424 206.464 76.8639 204.368 76.3869 202.102C75.9218 199.818 76.3676 197.443 77.629 195.484C79.0612 193.387 81.4368 192.131 83.826 191.269C86.2153 190.407 88.7267 189.85 91.0005 188.717C92.8789 187.771 94.5506 186.461 95.9185 184.864C97.2865 183.266 98.3234 181.413 98.969 179.411C99.7215 181.219 100.222 183.121 100.456 185.065C100.563 186.035 100.472 187.016 100.188 187.949C99.9047 188.883 99.4345 189.749 98.8061 190.495C100.503 189.063 100.842 191.228 100.795 192.613C102.078 193.516 104.474 193.068 105.003 194.541C105.608 195.988 105.857 197.559 105.729 199.122C105.519 200.67 106.822 202.95 105.343 203.466" stroke="white" stroke-miterlimit="10"/>
<path d="M99.4306 190.054C99.4306 190.054 108.58 188.391 105.838 203.392L99.4306 190.054Z" fill="white"/>
<path opacity="0.1" d="M172.175 238.708L40.3003 274.711L70.5575 385.54L202.432 349.538L172.175 238.708Z" fill="black"/>
<path d="M136.6 274.057L72.0634 291.675L73.7867 297.987L138.323 280.369L136.6 274.057Z" fill="white"/>
<path d="M156.054 284.574L76.0844 306.406L77.8077 312.718L157.777 290.886L156.054 284.574Z" fill="white"/>
<path d="M263.759 108.879L168.363 134.923L181.194 181.924L276.591 155.88L263.759 108.879Z" fill="#F5F5F5"/>
<path d="M276.209 154.47L180.813 180.514L193.645 227.515L289.041 201.471L276.209 154.47Z" fill="#E0E0E0"/>
<path d="M490.337 47.026L394.94 73.0698L407.772 120.071L503.168 94.0269L490.337 47.026Z" fill="#F5F5F5"/>
<path d="M502.78 92.6168L407.384 118.661L420.215 165.661L515.612 139.618L502.78 92.6168Z" fill="#E0E0E0"/>
<path d="M376.698 78.0448L281.301 104.089L294.133 151.089L389.529 125.046L376.698 78.0448Z" fill="#F5F5F5"/>
<path d="M389.143 123.644L293.747 149.688L306.578 196.689L401.975 170.645L389.143 123.644Z" fill="#E0E0E0"/>
<path d="M289.941 215.471L195.009 241.182L207.677 287.954L302.609 262.243L289.941 215.471Z" fill="#E0E0E0"/>
<path d="M305.314 261.096L209.917 287.14L222.749 334.141L318.145 308.097L305.314 261.096Z" fill="#BDBDBD"/>
<path d="M519.439 153.645L424.043 179.689L436.874 226.69L532.271 200.646L519.439 153.645Z" fill="#F5F5F5"/>
<path d="M531.891 199.243L436.495 225.287L449.326 272.287L544.723 246.244L531.891 199.243Z" fill="#BDBDBD"/>
<path d="M405.802 184.671L310.405 210.715L323.237 257.715L418.633 231.672L405.802 184.671Z" fill="#F5F5F5"/>
<path d="M418.252 230.262L322.855 256.305L335.687 303.306L431.083 277.262L418.252 230.262Z" fill="#BDBDBD"/>
<path d="M197.711 187.21C203.522 185.624 207.033 179.94 205.552 174.516C204.071 169.091 198.16 165.98 192.348 167.567C186.537 169.153 183.026 174.837 184.507 180.261C185.988 185.686 191.9 188.797 197.711 187.21Z" fill="url(#paint6_linear)"/>
<path d="M195.04 185.62C200.053 184.262 203.016 179.098 201.659 174.085C200.301 169.072 195.137 166.109 190.124 167.466C185.111 168.824 182.147 173.988 183.505 179.001C184.863 184.014 190.027 186.978 195.04 185.62Z" fill="#1D253C"/>
<path d="M309.247 156.759C315.058 155.173 318.568 149.489 317.088 144.065C315.607 138.64 309.695 135.529 303.884 137.116C298.072 138.702 294.562 144.386 296.043 149.81C297.524 155.235 303.435 158.346 309.247 156.759Z" fill="url(#paint7_linear)"/>
<path d="M308.864 155.36C313.902 153.984 316.871 148.786 315.495 143.748C314.12 138.711 308.921 135.742 303.884 137.117C298.846 138.493 295.878 143.691 297.253 148.729C298.628 153.766 303.827 156.735 308.864 155.36Z" fill="#1D253C"/>
<path d="M424.289 125.35C430.1 123.764 433.611 118.08 432.13 112.656C430.649 107.231 424.737 104.12 418.926 105.706C413.114 107.293 409.604 112.976 411.085 118.401C412.566 123.825 418.477 126.937 424.289 125.35Z" fill="url(#paint8_linear)"/>
<path d="M423.906 123.951C428.944 122.575 431.913 117.377 430.537 112.339C429.162 107.302 423.964 104.333 418.926 105.708C413.888 107.083 410.92 112.282 412.295 117.319C413.67 122.357 418.869 125.326 423.906 123.951Z" fill="#1D253C"/>
<path d="M227.013 294.533C232.824 292.947 236.334 287.263 234.854 281.839C233.373 276.414 227.461 273.303 221.65 274.89C215.838 276.476 212.328 282.16 213.809 287.584C215.29 293.009 221.201 296.12 227.013 294.533Z" fill="url(#paint9_linear)"/>
<path d="M226.63 293.136C231.668 291.76 234.637 286.562 233.262 281.524C231.886 276.487 226.688 273.518 221.65 274.893C216.613 276.268 213.644 281.467 215.019 286.505C216.394 291.542 221.593 294.511 226.63 293.136Z" fill="#2196F3"/>
<path d="M338.548 264.083C344.359 262.496 347.87 256.812 346.389 251.388C344.908 245.964 338.997 242.852 333.185 244.439C327.374 246.025 323.863 251.709 325.344 257.133C326.825 262.558 332.737 265.669 338.548 264.083Z" fill="url(#paint10_linear)"/>
<path d="M338.159 262.685C343.197 261.309 346.166 256.111 344.79 251.073C343.415 246.036 338.216 243.067 333.179 244.442C328.141 245.817 325.173 251.016 326.548 256.054C327.923 261.091 333.122 264.06 338.159 262.685Z" fill="#2196F3"/>
<path d="M453.584 232.675C459.395 231.089 462.906 225.405 461.425 219.981C459.944 214.556 454.032 211.445 448.221 213.032C442.409 214.618 438.899 220.302 440.38 225.726C441.861 231.151 447.772 234.262 453.584 232.675Z" fill="url(#paint11_linear)"/>
<path d="M453.201 231.276C458.239 229.9 461.208 224.702 459.832 219.664C458.457 214.627 453.259 211.658 448.221 213.033C443.184 214.408 440.215 219.607 441.59 224.644C442.965 229.682 448.164 232.651 453.201 231.276Z" fill="#2196F3"/>
<path d="M596.068 204.769H76.8892V460.992H596.068V204.769Z" fill="#F5F5F5"/>
<path d="M599 204.45H73.2782V466.945H599V204.45Z" fill="url(#paint12_linear)"/>
<path d="M596.068 230.63H76.8892V460.829H596.068V230.63Z" fill="white"/>
<path d="M89.2493 223.775C92.863 223.775 95.7925 220.845 95.7925 217.231C95.7925 213.618 92.863 210.688 89.2493 210.688C85.6356 210.688 82.7061 213.618 82.7061 217.231C82.7061 220.845 85.6356 223.775 89.2493 223.775Z" fill="#FF5252"/>
<path d="M108.879 223.775C112.493 223.775 115.422 220.845 115.422 217.231C115.422 213.618 112.493 210.688 108.879 210.688C105.265 210.688 102.336 213.618 102.336 217.231C102.336 220.845 105.265 223.775 108.879 223.775Z" fill="#FFFF00"/>
<path d="M128.515 223.775C132.129 223.775 135.058 220.845 135.058 217.231C135.058 213.618 132.129 210.688 128.515 210.688C124.901 210.688 121.972 213.618 121.972 217.231C121.972 220.845 124.901 223.775 128.515 223.775Z" fill="#69F0AE"/>
<path d="M213.59 230.324H76.8892V460.829H213.59V230.324Z" fill="#1D253C"/>
<path d="M181.621 302.313C181.621 283.24 165.331 267.771 145.267 267.771C125.203 267.771 108.906 283.233 108.906 302.313C108.906 317.286 118.931 330.027 132.954 334.819V325.92C132.954 319.485 138.493 314.225 145.267 314.225C152.054 314.225 157.579 319.485 157.579 325.92V334.819C171.596 330.027 181.621 317.28 181.621 302.313Z" fill="url(#paint13_linear)"/>
<path d="M145.504 308.87H145.016C143.944 308.87 143.074 309.739 143.074 310.811V321.576C143.074 322.648 143.944 323.517 145.016 323.517H145.504C146.577 323.517 147.446 322.648 147.446 321.576V310.811C147.446 309.739 146.577 308.87 145.504 308.87Z" fill="url(#paint14_linear)"/>
<path d="M145.287 310.838C153.006 310.838 159.263 304.894 159.263 297.562C159.263 290.229 153.006 284.285 145.287 284.285C137.569 284.285 131.312 290.229 131.312 297.562C131.312 304.894 137.569 310.838 145.287 310.838Z" fill="url(#paint15_linear)"/>
<path d="M145.267 314.225C138.479 314.225 132.954 319.485 132.954 325.92V334.819C140.937 337.528 149.59 337.528 157.573 334.819V325.92C157.573 319.485 152.034 314.225 145.267 314.225Z" fill="url(#paint16_linear)"/>
<path d="M131.169 296.822C130.052 294.781 129.534 292.466 129.676 290.143C129.763 288.979 130.081 287.843 130.613 286.804C131.144 285.764 131.878 284.841 132.771 284.088C134.807 282.439 137.57 281.855 140.237 281.652C142.905 281.448 145.606 281.57 148.233 281.082C152.554 280.277 156.385 277.808 158.903 274.206C159.165 276.147 159.144 278.115 158.842 280.05C158.675 281.031 158.306 281.967 157.758 282.798C157.21 283.629 156.495 284.337 155.659 284.876C157.783 283.946 157.552 286.132 157.091 287.441C158.143 288.65 160.702 288.847 160.831 290.408C161.042 291.967 160.858 293.554 160.294 295.023C159.65 296.462 160.342 299.001 158.699 299.096" fill="url(#paint17_linear)"/>
<path d="M179.775 297.222C179.774 290.898 178.037 284.695 174.753 279.29C171.469 273.886 166.765 269.486 161.152 266.571C155.539 263.657 149.234 262.339 142.924 262.762C136.614 263.184 130.541 265.331 125.367 268.969C120.193 272.606 116.118 277.594 113.584 283.388C111.05 289.183 110.156 295.562 110.999 301.83C111.842 308.098 114.39 314.014 118.364 318.933C122.338 323.853 127.587 327.587 133.538 329.728V320.843C133.547 317.744 134.782 314.775 136.973 312.583C139.164 310.392 142.134 309.157 145.233 309.148C148.338 309.148 151.316 310.379 153.514 312.571C155.713 314.764 156.953 317.738 156.962 320.843V329.741C163.648 327.327 169.426 322.908 173.509 317.088C177.592 311.269 179.78 304.331 179.775 297.222Z" fill="#1D253C"/>
<path d="M145.375 303.779H145.104C144.032 303.779 143.163 304.648 143.163 305.72V316.485C143.163 317.557 144.032 318.427 145.104 318.427H145.375C146.448 318.427 147.317 317.557 147.317 316.485V305.72C147.317 304.648 146.448 303.779 145.375 303.779Z" fill="white" stroke="white" stroke-miterlimit="10"/>
<path d="M145.26 305.748C152.592 305.748 158.536 299.804 158.536 292.471C158.536 285.139 152.592 279.195 145.26 279.195C137.928 279.195 131.984 285.139 131.984 292.471C131.984 299.804 137.928 305.748 145.26 305.748Z" fill="white" stroke="white" stroke-miterlimit="10"/>
<path d="M145.24 309.135C142.138 309.143 139.167 310.38 136.975 312.575C134.784 314.769 133.55 317.742 133.545 320.843V329.741C141.106 332.451 149.373 332.451 156.935 329.741V320.843C156.929 317.742 155.696 314.769 153.504 312.575C151.312 310.38 148.341 309.143 145.24 309.135Z" fill="white" stroke="white" stroke-miterlimit="10"/>
<path d="M131.848 291.738C130.784 289.68 130.293 287.373 130.429 285.059C130.584 282.734 131.641 280.561 133.375 279.005C135.31 277.355 137.93 276.772 140.461 276.568C142.993 276.364 145.559 276.487 148.057 275.998C150.118 275.581 152.076 274.758 153.817 273.578C155.558 272.397 157.047 270.883 158.197 269.122C158.447 271.063 158.429 273.03 158.143 274.966C157.993 275.934 157.647 276.861 157.127 277.691C156.606 278.521 155.922 279.236 155.116 279.792C157.152 278.862 156.914 281.048 156.473 282.358C157.471 283.566 159.867 283.763 160.023 285.324C160.225 286.881 160.05 288.464 159.514 289.939C158.903 291.378 159.555 293.917 158 294.012" fill="white"/>
<path d="M131.848 291.738C130.784 289.68 130.293 287.373 130.429 285.059C130.584 282.734 131.641 280.561 133.375 279.005C135.31 277.355 137.93 276.772 140.461 276.568C142.993 276.364 145.559 276.487 148.057 275.998C150.118 275.581 152.076 274.758 153.817 273.578C155.558 272.397 157.047 270.883 158.197 269.122C158.447 271.063 158.429 273.03 158.143 274.966C157.993 275.934 157.647 276.861 157.127 277.691C156.606 278.521 155.922 279.236 155.116 279.792C157.152 278.862 156.914 281.048 156.473 282.358C157.471 283.566 159.867 283.763 160.023 285.324C160.225 286.881 160.05 288.464 159.514 289.939C158.903 291.378 159.555 293.917 158 294.012" stroke="white" stroke-miterlimit="10"/>
<path d="M155.869 279.439C155.869 279.439 165.134 280.247 158.536 293.998L155.869 279.439Z" fill="white"/>
<path opacity="0.1" d="M213.224 345.577H76.5227V460.463H213.224V345.577Z" fill="black"/>
<path d="M169.6 370.297H102.702V376.84H169.6V370.297Z" fill="white"/>
<path d="M331.748 269.224H264.85V275.767H331.748V269.224Z" fill="#BDBDBD"/>
<path d="M504.076 308.49H264.85V315.033H504.076V308.49Z" fill="#E0E0E0"/>
<path d="M504.076 347.756H264.85V354.299H504.076V347.756Z" fill="#E0E0E0"/>
<path d="M331.748 387.021H264.85V393.565H331.748V387.021Z" fill="#719DF2"/>
<path d="M417.549 387.021H350.651V393.565H417.549V387.021Z" fill="#F5F5F5"/>
<path d="M504.083 387.021H437.185V393.565H504.083V387.021Z" fill="#719DF2"/>
<path d="M185.598 385.569H102.702V392.112H185.598V385.569Z" fill="white"/>
</g>
<defs>
<linearGradient id="paint0_linear" x1="322.711" y1="323.432" x2="253.579" y2="70.2045" gradientUnits="userSpaceOnUse">
<stop stop-color="#808080" stop-opacity="0.25"/>
<stop offset="0.54" stop-color="#808080" stop-opacity="0.12"/>
<stop offset="1" stop-color="#808080" stop-opacity="0.1"/>
</linearGradient>
<linearGradient id="paint1_linear" x1="103.778" y1="246.235" x2="86.1216" y2="181.561" gradientUnits="userSpaceOnUse">
<stop stop-opacity="0.12"/>
<stop offset="0.55" stop-opacity="0.09"/>
<stop offset="1" stop-opacity="0.02"/>
</linearGradient>
<linearGradient id="paint2_linear" x1="-127.985" y1="4261.29" x2="-211.233" y2="3956.36" gradientUnits="userSpaceOnUse">
<stop stop-opacity="0.12"/>
<stop offset="0.55" stop-opacity="0.09"/>
<stop offset="1" stop-opacity="0.02"/>
</linearGradient>
<linearGradient id="paint3_linear" x1="-8638.6" y1="9165.47" x2="-8912.17" y2="8163.39" gradientUnits="userSpaceOnUse">
<stop stop-opacity="0.12"/>
<stop offset="0.55" stop-opacity="0.09"/>
<stop offset="1" stop-opacity="0.02"/>
</linearGradient>
<linearGradient id="paint4_linear" x1="-10562.8" y1="6665.2" x2="-10562.8" y2="5877.19" gradientUnits="userSpaceOnUse">
<stop stop-opacity="0.12"/>
<stop offset="0.55" stop-opacity="0.09"/>
<stop offset="1" stop-opacity="0.02"/>
</linearGradient>
<linearGradient id="paint5_linear" x1="-12490.3" y1="6497.06" x2="-12490.3" y2="5428.66" gradientUnits="userSpaceOnUse">
<stop stop-opacity="0.12"/>
<stop offset="0.55" stop-opacity="0.09"/>
<stop offset="1" stop-opacity="0.02"/>
</linearGradient>
<linearGradient id="paint6_linear" x1="184.507" y1="180.261" x2="205.552" y2="174.516" gradientUnits="userSpaceOnUse">
<stop stop-opacity="0.09"/>
<stop offset="0.55" stop-opacity="0.07"/>
<stop offset="1" stop-opacity="0.02"/>
</linearGradient>
<linearGradient id="paint7_linear" x1="-55.1887" y1="4685.23" x2="621.196" y2="4500.57" gradientUnits="userSpaceOnUse">
<stop stop-opacity="0.09"/>
<stop offset="0.55" stop-opacity="0.07"/>
<stop offset="1" stop-opacity="0.02"/>
</linearGradient>
<linearGradient id="paint8_linear" x1="3744.9" y1="3615.22" x2="4421.29" y2="3430.56" gradientUnits="userSpaceOnUse">
<stop stop-opacity="0.09"/>
<stop offset="0.55" stop-opacity="0.07"/>
<stop offset="1" stop-opacity="0.02"/>
</linearGradient>
<linearGradient id="paint9_linear" x1="-2803.79" y1="9038.21" x2="-2127.41" y2="8853.56" gradientUnits="userSpaceOnUse">
<stop stop-opacity="0.09"/>
<stop offset="0.55" stop-opacity="0.07"/>
<stop offset="1" stop-opacity="0.02"/>
</linearGradient>
<linearGradient id="paint10_linear" x1="880.362" y1="8000.85" x2="1556.75" y2="7816.19" gradientUnits="userSpaceOnUse">
<stop stop-opacity="0.09"/>
<stop offset="0.55" stop-opacity="0.07"/>
<stop offset="1" stop-opacity="0.02"/>
</linearGradient>
<linearGradient id="paint11_linear" x1="4680.45" y1="6930.83" x2="5356.84" y2="6746.17" gradientUnits="userSpaceOnUse">
<stop stop-opacity="0.09"/>
<stop offset="0.55" stop-opacity="0.07"/>
<stop offset="1" stop-opacity="0.02"/>
</linearGradient>
<linearGradient id="paint12_linear" x1="260426" y1="180409" x2="260426" y2="78895" gradientUnits="userSpaceOnUse">
<stop stop-color="#808080" stop-opacity="0.25"/>
<stop offset="0.54" stop-color="#808080" stop-opacity="0.12"/>
<stop offset="1" stop-color="#808080" stop-opacity="0.1"/>
</linearGradient>
<linearGradient id="paint13_linear" x1="27214.8" y1="40401.6" x2="27214.8" y2="33778.7" gradientUnits="userSpaceOnUse">
<stop stop-opacity="0.12"/>
<stop offset="0.55" stop-opacity="0.09"/>
<stop offset="1" stop-opacity="0.02"/>
</linearGradient>
<linearGradient id="paint14_linear" x1="1078.59" y1="7269.24" x2="1078.59" y2="6953.29" gradientUnits="userSpaceOnUse">
<stop stop-opacity="0.12"/>
<stop offset="0.55" stop-opacity="0.09"/>
<stop offset="1" stop-opacity="0.02"/>
</linearGradient>
<linearGradient id="paint15_linear" x1="6114.24" y1="12405.9" x2="6114.24" y2="11367.4" gradientUnits="userSpaceOnUse">
<stop stop-opacity="0.12"/>
<stop offset="0.55" stop-opacity="0.09"/>
<stop offset="1" stop-opacity="0.02"/>
</linearGradient>
<linearGradient id="paint16_linear" x1="9309.94" y1="13925.1" x2="9309.94" y2="13171" gradientUnits="userSpaceOnUse">
<stop stop-opacity="0.12"/>
<stop offset="0.55" stop-opacity="0.09"/>
<stop offset="1" stop-opacity="0.02"/>
</linearGradient>
<linearGradient id="paint17_linear" x1="11784.8" y1="13863.9" x2="11784.8" y2="12950.4" gradientUnits="userSpaceOnUse">
<stop stop-opacity="0.12"/>
<stop offset="0.55" stop-opacity="0.09"/>
<stop offset="1" stop-opacity="0.02"/>
</linearGradient>
<clipPath id="clip0">
<rect width="599" height="465.971" fill="white" transform="translate(0 0.973633)"/>
</clipPath>
</defs>
</svg>
