<svg width="1440" height="769" viewBox="0 0 1440 769" fill="none" xmlns="http://www.w3.org/2000/svg">
<g filter="url(#filter0_d)">
<path fill-rule="evenodd" clip-rule="evenodd" d="M1441 46.2361C1479.37 52.6334 1510.75 83.3529 1516.19 123.92C1522.74 172.758 1489.26 217.736 1441 225.772V46.2361ZM1441 0.813377V46.2361C1432.26 44.7781 1423.15 44.5835 1413.9 45.8234C1364.09 52.5039 1329.13 98.3001 1335.81 148.112C1342.49 197.924 1388.28 232.889 1438.1 226.208C1439.07 226.078 1440.04 225.932 1441 225.772V271.187C1367.76 279.347 1301.05 227.511 1291.21 154.094C1281.22 79.6495 1333.48 11.2068 1407.92 1.22271C1411.92 0.68593 1415.91 0.329055 1419.87 0.145857H1432.46C1435.33 0.278847 1438.18 0.50218 1441 0.813377ZM1432.46 0.145857H1441V0.813377C1501.67 7.49742 1552.31 54.716 1560.79 117.938C1570.78 192.382 1518.52 260.825 1444.08 270.809C1443.05 270.947 1442.02 271.073 1441 271.187V435.146C1441 545.603 1351.46 635.146 1241 635.146H139.27C146.218 615.607 150 594.568 150 572.646C150 482.489 86.0279 407.274 1 389.917V0.145857H1419.87C1424.1 -0.0498822 1428.3 -0.0473517 1432.46 0.145857ZM1 436.168V389.917C-11.114 387.444 -23.6553 386.146 -36.5 386.146C-139.501 386.146 -223 469.645 -223 572.646C-223 675.647 -139.501 759.146 -36.5 759.146C44.5786 759.146 113.573 707.408 139.27 635.146H90.484C99.7784 616.298 105 595.082 105 572.646C105 507.48 60.9488 452.603 1 436.168ZM1 436.168V635.146H90.484C67.4046 681.948 19.2124 714.146 -36.5 714.146C-114.648 714.146 -178 650.794 -178 572.646C-178 494.497 -114.648 431.146 -36.5 431.146C-23.5174 431.146 -10.9432 432.894 1 436.168Z" fill="url(#paint0_linear)"/>
</g>
<defs>
<filter id="filter0_d" x="-227" y="0" width="1793.02" height="768.146" filterUnits="userSpaceOnUse" color-interpolation-filters="sRGB">
<feFlood flood-opacity="0" result="BackgroundImageFix"/>
<feColorMatrix in="SourceAlpha" type="matrix" values="0 0 0 0 0 0 0 0 0 0 0 0 0 0 0 0 0 0 127 0"/>
<feOffset dy="5"/>
<feGaussianBlur stdDeviation="2"/>
<feColorMatrix type="matrix" values="0 0 0 0 0.616392 0 0 0 0 0.95 0 0 0 0 0.562083 0 0 0 1 0"/>
<feBlend mode="normal" in2="BackgroundImageFix" result="effect1_dropShadow"/>
<feBlend mode="normal" in="SourceGraphic" in2="effect1_dropShadow" result="shape"/>
</filter>
<linearGradient id="paint0_linear" x1="-104.929" y1="-29.855" x2="1620.18" y2="536.066" gradientUnits="userSpaceOnUse">
<stop stop-color="#1793E3"/>
<stop offset="1" stop-color="#168BDA"/>
</linearGradient>
</defs>
</svg>
