<svg width="1440" height="769" viewBox="0 0 1440 769" fill="none" xmlns="http://www.w3.org/2000/svg">
<g filter="url(#filter0_d)">
<path fill-rule="evenodd" clip-rule="evenodd" d="M25.1121 713.323C-24.6999 720.003 -70.4961 685.038 -77.1766 635.226C-83.7265 586.388 -50.2431 541.41 -1.98409 533.374V559C-1.98409 615.086 21.1019 665.779 58.2895 702.096C48.3532 707.798 37.1675 711.706 25.1121 713.323ZM95.8865 730.994C77.6342 745.044 55.5626 754.642 31.0937 757.923C-43.3505 767.907 -111.793 715.652 -121.777 641.208C-131.761 566.764 -79.5061 498.321 -5.06197 488.337C-4.03487 488.199 -3.00887 488.073 -1.98409 487.959V533.374C-1.02193 533.214 -0.0539091 533.068 0.919724 532.938C50.7316 526.257 96.5279 561.222 103.208 611.034C108.272 648.791 89.409 684.24 58.2895 702.096C69.6014 713.144 82.218 722.86 95.8865 730.994ZM1438.02 369.229V759L198.016 759C160.705 759 125.78 748.783 95.8865 730.994C133.165 702.298 154.512 655.028 147.809 605.052C137.963 531.635 71.2598 479.799 -1.98409 487.959V324C-1.98409 213.543 87.559 124 198.016 124L1299.75 124C1292.8 143.539 1289.02 164.578 1289.02 186.5C1289.02 276.657 1352.99 351.872 1438.02 369.229ZM1438.02 322.978V369.229C1450.13 371.702 1462.67 373 1475.52 373C1578.52 373 1662.02 289.501 1662.02 186.5C1662.02 83.4991 1578.52 0.000153643 1475.52 0.000153643C1394.44 0.000153643 1325.44 51.7381 1299.75 124H1348.53C1339.24 142.848 1334.02 164.064 1334.02 186.5C1334.02 251.666 1378.07 306.543 1438.02 322.978ZM1438.02 322.978L1438.02 124L1348.53 124C1371.61 77.1977 1419.8 45.0002 1475.52 45.0002C1553.66 45.0002 1617.02 108.352 1617.02 186.5C1617.02 264.648 1553.66 328 1475.52 328C1462.53 328 1449.96 326.252 1438.02 322.978Z" fill="url(#paint0_linear)"/>
</g>
<defs>
<filter id="filter0_d" x="-127" y="0.00012207" width="1793.02" height="768.146" filterUnits="userSpaceOnUse" color-interpolation-filters="sRGB">
<feFlood flood-opacity="0" result="BackgroundImageFix"/>
<feColorMatrix in="SourceAlpha" type="matrix" values="0 0 0 0 0 0 0 0 0 0 0 0 0 0 0 0 0 0 127 0"/>
<feOffset dy="5"/>
<feGaussianBlur stdDeviation="2"/>
<feColorMatrix type="matrix" values="0 0 0 0 0.616392 0 0 0 0 0.95 0 0 0 0 0.562083 0 0 0 1 0"/>
<feBlend mode="normal" in2="BackgroundImageFix" result="effect1_dropShadow"/>
<feBlend mode="normal" in="SourceGraphic" in2="effect1_dropShadow" result="shape"/>
</filter>
<linearGradient id="paint0_linear" x1="1543.95" y1="789.001" x2="-181.165" y2="223.08" gradientUnits="userSpaceOnUse">
<stop stop-color="#1793E3"/>
<stop offset="1" stop-color="#168BDA"/>
</linearGradient>
</defs>
</svg>
