<svg width="1440" height="769" viewBox="0 0 1440 769" fill="none" xmlns="http://www.w3.org/2000/svg">
<g filter="url(#filter0_d)">
<path fill-rule="evenodd" clip-rule="evenodd" d="M1440 712.91C1478.37 706.512 1509.75 675.793 1515.19 635.226C1521.74 586.388 1488.26 541.41 1440 533.374V712.91ZM1440 758.332V712.91C1431.26 714.368 1422.15 714.562 1412.9 713.322C1363.09 706.642 1328.13 660.846 1334.81 611.034C1341.49 561.222 1387.28 526.257 1437.1 532.937C1438.07 533.068 1439.04 533.214 1440 533.374V487.959C1366.76 479.799 1300.05 531.635 1290.21 605.052C1280.22 679.496 1332.48 747.939 1406.92 757.923C1410.92 758.46 1414.91 758.817 1418.87 759H1431.46C1434.33 758.867 1437.18 758.644 1440 758.332ZM1431.46 759H1440V758.332C1500.67 751.648 1551.31 704.43 1559.79 641.208C1569.78 566.764 1517.52 498.321 1443.08 488.337C1442.05 488.199 1441.02 488.073 1440 487.959V324C1440 213.543 1350.46 124 1240 124H138.27C145.217 143.538 149 164.578 149 186.5C149 276.656 85.0279 351.871 0 369.229V759H1418.87C1423.1 759.196 1427.3 759.193 1431.46 759ZM0 322.977V369.229C-12.114 371.701 -24.6553 373 -37.5 373C-140.501 373 -224 289.501 -224 186.5C-224 83.4989 -140.501 0 -37.5 0C43.5786 0 112.573 51.738 138.27 124H89.484C98.7784 142.848 104 164.064 104 186.5C104 251.666 59.9488 306.543 0 322.977ZM0 322.977V124H89.484C66.4046 77.1975 18.2123 45 -37.5 45C-115.648 45 -179 108.352 -179 186.5C-179 264.648 -115.648 328 -37.5 328C-24.5174 328 -11.9432 326.252 0 322.977Z" fill="url(#paint0_linear)"/>
</g>
<defs>
<filter id="filter0_d" x="-228" y="0" width="1793.02" height="768.146" filterUnits="userSpaceOnUse" color-interpolation-filters="sRGB">
<feFlood flood-opacity="0" result="BackgroundImageFix"/>
<feColorMatrix in="SourceAlpha" type="matrix" values="0 0 0 0 0 0 0 0 0 0 0 0 0 0 0 0 0 0 127 0"/>
<feOffset dy="5"/>
<feGaussianBlur stdDeviation="2"/>
<feColorMatrix type="matrix" values="0 0 0 0 0.616392 0 0 0 0 0.95 0 0 0 0 0.562083 0 0 0 1 0"/>
<feBlend mode="normal" in2="BackgroundImageFix" result="effect1_dropShadow"/>
<feBlend mode="normal" in="SourceGraphic" in2="effect1_dropShadow" result="shape"/>
</filter>
<linearGradient id="paint0_linear" x1="-105.929" y1="789.001" x2="1619.18" y2="223.08" gradientUnits="userSpaceOnUse">
<stop stop-color="#1793E3"/>
<stop offset="1" stop-color="#168BDA"/>
</linearGradient>
</defs>
</svg>
